<?xml version="1.0" standalone="no"?>
<!DOCTYPE svg PUBLIC "-//W3C//DTD SVG 1.1//EN" "http://www.w3.org/Graphics/SVG/1.1/DTD/svg11.dtd" >
<svg>
<metadata>
Created by FontForge 20090914 at Wed Feb  8 15:54:28 2023
 By www-data
Copyright (c)1996&#226;&#128;&#144;1997, 2000 P22 type foundry. All rights reserved. 0600
</metadata>
<defs>
<font id="P22BagaglioFlat" horiz-adv-x="500" >
  <font-face 
    font-family="P22 Bagaglio Flat"
    font-weight="400"
    font-stretch="normal"
    units-per-em="1000"
    panose-1="0 0 4 0 0 0 0 0 0 0"
    ascent="800"
    descent="-200"
    x-height="465"
    cap-height="698"
    bbox="-19 -299.001 858 945"
    underline-thickness="20"
    underline-position="-123"
    unicode-range="U+0020-U+F002"
  />
<missing-glyph 
d="M63 0v800h375v-800h-375zM125 63h250v675h-250v-675z" />
    <glyph glyph-name=".notdef" 
d="M63 0v800h375v-800h-375zM125 63h250v675h-250v-675z" />
    <glyph glyph-name="space" unicode=" " horiz-adv-x="288" 
 />
    <glyph glyph-name="exclam" unicode="!" horiz-adv-x="298" 
d="M203 693l-64 -503l-121 24l-9 484zM176 95c0 -20.667 -7.5 -38.5 -22.5 -53.5s-33.167 -22.5 -54.5 -22.5c-20.667 0 -38.5 7.5 -53.5 22.5s-22.5 32.833 -22.5 53.5s7.5 38.5 22.5 53.5s32.833 22.5 53.5 22.5c21.333 0 39.5 -7.5 54.5 -22.5s22.5 -32.833 22.5 -53.5z
" />
    <glyph glyph-name="quotedbl" unicode="&#x22;" horiz-adv-x="407" 
d="M271 762l-23 -153h-58l-32 153h113zM126 762l-22 -153h-58l-33 153h113z" />
    <glyph glyph-name="numbersign" unicode="#" horiz-adv-x="786" 
d="M703 261l-7.00098 -71h-162l-2 -154l-65 -2l3 154c-37.333 1.33301 -65.666 2 -84.999 2h-95l-20 -169l-71 7v162h-183l10 55l163 10l9 194l-162 8l-3 73l166 -2v180l56 -10l1 -163l194 -9l17 162l72 3l-1 -166l150 -2l2 -66l-150 4l-5 -179z" />
    <glyph glyph-name="dollar" unicode="$" horiz-adv-x="474" 
d="M377 270c0 -85.333 -44.667 -137.667 -134 -157l-2 -101l-121 24l-1 72c-24 2 -59.667 6.66699 -107 14v122l105 3l-1 44c-44.667 42.667 -71.334 71.334 -80.001 86.001c-16 26.667 -24 65 -24 115c0 74.667 33 124.334 99 149.001v58l141 -9v-31
c34.667 -0.666992 70.334 -5.33398 107.001 -14.001v-140l-110 -10v-1c48 -35.333 80.333 -66.333 97 -93c20.667 -32.667 31 -76.334 31 -131.001z" />
    <glyph glyph-name="percent" unicode="%" horiz-adv-x="634" 
d="M189 612c0 -21.333 -7.66699 -39.5 -23 -54.5s-33.666 -22.5 -54.999 -22.5s-39.666 7.66699 -54.999 23s-23 33.333 -23 54c0 21.333 7.66699 39.5 23 54.5s33.666 22.5 54.999 22.5s39.666 -7.5 54.999 -22.5s23 -33.167 23 -54.5zM519 656l-407 -718l-97 76l382 714z
M547 120c0 -21.333 -7.66699 -39.5 -23 -54.5s-33.666 -22.5 -54.999 -22.5s-39.666 7.5 -54.999 22.5s-23 33.167 -23 54.5s7.66699 39.5 23 54.5s33.666 22.5 54.999 22.5s39.666 -7.66699 54.999 -23s23 -33.333 23 -54z" />
    <glyph glyph-name="ampersand" unicode="&#x26;" horiz-adv-x="709" 
d="M609 302l-77 -2l-13 -285l-505 21l1 664l298 21v-163l-172 -187v-3c0 2 10 -7 30 -27l219 -181l5 138l-99 -1l-9 168l109 -2l-3 89l141 -9l-5 -80h77z" />
    <glyph glyph-name="quotesingle" unicode="'" horiz-adv-x="260" 
d="M124 759l-23 -153h-58l-32 153h113z" />
    <glyph glyph-name="parenleft" unicode="(" horiz-adv-x="415" 
d="M299 22h-14.999c-84.667 0 -152 37.667 -202 113c-42.667 65.333 -64 142.333 -64 231c0 78 24.667 149 74 213s111.666 108.333 186.999 133z" />
    <glyph glyph-name="parenright" unicode=")" horiz-adv-x="336" 
d="M233 406c0 -86.667 -17 -165.333 -51 -236c-40.667 -83.333 -98 -136.666 -172 -159.999v734c63.333 -32.667 116 -79.334 158 -140.001c43.333 -63.333 65 -129.333 65 -198z" />
    <glyph glyph-name="asterisk" unicode="*" horiz-adv-x="493" 
d="M412 358l-80 5l59 -85l-77 -44l-64 90l-6 -120l-94 13l11 109l-64 -61l-65 96l60 28l-90 15l16 115l77 -9l-67 84l80 60l62 -94l14 128l101 -16l-20 -121l69 78l63 -75l-63 -72l75 3z" />
    <glyph glyph-name="plus" unicode="+" horiz-adv-x="429" 
d="M318 253l-77 -2l-9 -155l-136 2l4 160h-89l8 156h86l-4 184l142 -8l-5 -176h78z" />
    <glyph glyph-name="comma" unicode="," horiz-adv-x="187" 
d="M135 98c0 -60 -35.333 -102.666 -106 -127.999c34 21.333 51 49 51 83c0 29.333 -16 56.666 -48 81.999c2 0 5 0.333008 9 1s7 1 9 1c5.33301 0 12.333 0.333008 21 1h20c29.333 0 44 -13.333 44 -40z" />
    <glyph glyph-name="hyphen" unicode="-" horiz-adv-x="472" 
d="M376 419l-3 -176l-356 31l-16 167l372 -17c0 -4 1 -5.66699 3 -5z" />
    <glyph glyph-name="hyphen" unicode="&#x2010;" horiz-adv-x="472" 
d="M376 419l-3 -176l-356 31l-16 167l372 -17c0 -4 1 -5.66699 3 -5z" />
    <glyph glyph-name="period" unicode="." horiz-adv-x="188" 
d="M126 72c0 -16 -5.83301 -29.667 -17.5 -41s-25.167 -17 -40.5 -17c-16 0 -29.833 5.66699 -41.5 17s-17.5 25 -17.5 41s5.83301 29.667 17.5 41s25.5 17 41.5 17c15.333 0 28.833 -5.66699 40.5 -17s17.5 -25 17.5 -41z" />
    <glyph glyph-name="slash" unicode="/" horiz-adv-x="646" 
d="M519 656l-407 -718l-97 76l382 714z" />
    <glyph glyph-name="zero" unicode="0" horiz-adv-x="858" 
d="M730 415c0 -102 -38.168 -192.333 -114.501 -271s-165.5 -118 -267.5 -118s-183.167 31.667 -243.5 95s-90.5 146 -90.5 248c0 102.667 32.667 193.667 98 273c69.333 83.333 154.333 125 255 125c102.667 0 188.834 -33.167 258.501 -99.5s104.5 -150.5 104.5 -252.5z
M418.999 387c0 15.333 -5.5 28.166 -16.5 38.499s-24.167 15.5 -39.5 15.5s-28.666 -5.16699 -39.999 -15.5s-17 -23.166 -17 -38.499s5.66699 -28.333 17 -39s24.666 -16 39.999 -16s28.5 5.5 39.5 16.5s16.5 23.833 16.5 38.5z" />
    <glyph glyph-name="one" unicode="1" horiz-adv-x="319" 
d="M204 690l-11 -679l-121 24l-7 526l-59 5l57 132z" />
    <glyph glyph-name="two" unicode="2" horiz-adv-x="590" 
d="M11 196l-1 -1zM446 546c0 -64.667 -21.667 -131.331 -65 -199.998c-40 -63.333 -89 -115.333 -147 -156l211 -35l-3 -131l-430 17c2 82 3 122.333 3 121c0 22.667 -1 34 -3 34h-1l186 148c-51.333 7.33301 -94.5 30.166 -129.5 68.499s-52.5 83.166 -52.5 134.499
c0 57.333 21.167 105.833 63.5 145.5s92.833 59.5 151.5 59.5c58 0 108.5 -19.833 151.5 -59.5s64.5 -88.5 64.5 -146.5z" />
    <glyph glyph-name="three" unicode="3" horiz-adv-x="630" 
d="M496 706l-127 -170.001c84 -94.667 126 -185.667 126 -273c0 -67.333 -28 -125.666 -84 -174.999c-53.333 -46.667 -114.333 -70 -183 -70c-78 0 -149.333 22 -214 66l235 334c22.667 36 59 87.667 109 155l-351 6l-2 134z" />
    <glyph glyph-name="four" unicode="4" horiz-adv-x="662" 
d="M502 415l-2.00098 -153l-74 3c-2.66699 -88 -4 -153.667 -4 -197c0 -30.667 0.666992 -47.334 2 -50.001c-20 -2 -38.333 -3 -55 -3l-71 1l-4 250l-285 1l395 464c1.33301 -81.333 3 -160.666 5 -237.999c0 -14 1 -35 3 -63
c0.666992 -4.66699 1.33398 -9.66699 2.00098 -15h88z" />
    <glyph glyph-name="five" unicode="5" horiz-adv-x="559" 
d="M448 230c0 -58.667 -20.499 -108.499 -61.499 -149.499s-90.5 -61.5 -148.5 -61.5c-58.667 0 -110.5 20.5 -155.5 61.5s-67.5 90.5 -67.5 148.5v24c-0.666992 10.667 -1 18.667 -1 24c0 15.333 1.33301 27 4 35v357l414 -14l-2 -143l-222 -32v-42c10 1.33301 20 2 30 2
c57.333 0 106.666 -20.333 147.999 -61s62 -90.334 62 -149.001z" />
    <glyph glyph-name="six" unicode="6" horiz-adv-x="662" 
d="M536 240c0 -60 -17.667 -111.665 -53 -154.998c-38 -46 -86.333 -69 -145 -69c-90.667 0 -167.5 33.333 -230.5 100s-94.5 145.667 -94.5 237c0 90 30.333 168.667 91 236s135.667 101 225 101h26l1 -233c52 -10.667 95 -36.334 129 -77.001s51 -87.334 51 -140.001z
M340 246.002c0 16.667 -6.16699 30.834 -18.5 42.501s-26.833 17.5 -43.5 17.5s-31.167 -5.83301 -43.5 -17.5s-18.5 -25.834 -18.5 -42.501s6.16699 -31 18.5 -43s26.833 -18 43.5 -18s31.167 6 43.5 18s18.5 26.333 18.5 43z" />
    <glyph glyph-name="seven" unicode="7" horiz-adv-x="443" 
d="M322 560c0 -66.667 -3.33398 -156.667 -10.001 -270c-7.33301 -136.667 -11.666 -227 -12.999 -271l-198 9l139 483l-228 -6l-5 198l315 -2v-141z" />
    <glyph glyph-name="eight" unicode="8" horiz-adv-x="680" 
d="M550 216c0 -66 -28.998 -120.666 -86.998 -163.999c-53.333 -39.333 -114.333 -59 -183 -59s-129.334 19.667 -182.001 59c-58 43.333 -87 98 -87 164c0 74 35.333 133.333 106 178c-41.333 40 -62 88 -62 144c0 58.667 22.333 108.667 67 150
c43.333 39.333 95 59 155 59c59.333 0 110.666 -19.667 153.999 -59c44.667 -41.333 67 -91.333 67 -150c0 -54.667 -19.333 -102 -58 -142c32.667 -20 59 -45.333 79 -76c20.667 -32.667 31 -67.334 31 -104.001zM343.002 220.001c0 16.667 -6.16699 30.834 -18.5 42.501
s-26.833 17.5 -43.5 17.5s-31.334 -5.83301 -44.001 -17.5s-19 -25.834 -19 -42.501s6.33301 -31 19 -43s27.334 -18 44.001 -18s31.167 6 43.5 18s18.5 26.333 18.5 43z" />
    <glyph glyph-name="nine" unicode="9" horiz-adv-x="686" 
d="M547 351c0 -93.333 -30.667 -174.332 -92 -242.999c-64.667 -72 -142.334 -106.333 -233.001 -103l-27 1v239c-53.333 10.667 -97.5 37 -132.5 79s-52.5 90 -52.5 144c0 59.333 17.667 111.666 53 156.999c38.667 48.667 87.334 73 146.001 73
c94.667 0 174.667 -33.833 240 -101.5s98 -149.5 98 -245.5zM311 448.001c0 16.667 -6 30.667 -18 42s-26.667 17 -44 17c-16.667 0 -31.167 -5.66699 -43.5 -17s-18.5 -25.333 -18.5 -42s6.16699 -31 18.5 -43s26.833 -18 43.5 -18s31.167 6 43.5 18s18.5 26.333 18.5 43z
" />
    <glyph glyph-name="colon" unicode=":" horiz-adv-x="183" 
d="M117 471c0 -14.667 -5.33301 -27.167 -16 -37.5s-23.334 -15.5 -38.001 -15.5c-14 0 -26.333 5.16699 -37 15.5s-16 22.833 -16 37.5s5.33301 27.167 16 37.5s23 15.5 37 15.5c14.667 0 27.334 -5.16699 38.001 -15.5s16 -22.833 16 -37.5zM117 249
c0 -14.667 -5.33301 -27.167 -16 -37.5s-23.334 -15.5 -38.001 -15.5c-14 0 -26.333 5.16699 -37 15.5s-16 22.833 -16 37.5s5.33301 27.167 16 37.5s23 15.5 37 15.5c14.667 0 27.334 -5.16699 38.001 -15.5s16 -22.833 16 -37.5z" />
    <glyph glyph-name="semicolon" unicode=";" horiz-adv-x="183" 
d="M117 409c0 -13.333 -4.83301 -24.835 -14.5 -34.502s-21.167 -14.5 -34.5 -14.5s-24.833 4.83301 -34.5 14.5s-14.5 20.834 -14.5 33.501c0 13.333 4.83301 24.833 14.5 34.5s21.167 14.5 34.5 14.5s24.833 -4.66699 34.5 -14s14.5 -20.666 14.5 -33.999zM120 91.998
c0 -58.667 -35.667 -101.333 -107 -128c34.667 23.333 52 51.333 52 84c0 30 -16 57 -48 81c60.667 0 92 -1 94 -3c6 -4 9 -15.333 9 -34z" />
    <glyph glyph-name="less" unicode="&#x3c;" horiz-adv-x="539" 
d="M347 32l-332 271l320 303z" />
    <glyph glyph-name="equal" unicode="=" horiz-adv-x="481" 
d="M374 579l-3 -176l-360 24l-8 169zM381 351l-3 -175l-367 29l-1 164z" />
    <glyph glyph-name="greater" unicode="&#x3e;" horiz-adv-x="373" 
d="M352 298l-343 -265l9 576z" />
    <glyph glyph-name="question" unicode="?" horiz-adv-x="700" 
d="M510 513v-10l-162 -396l-28 -1c-22.667 -0.666992 -49 0.666016 -79 3.99902l90 376l-321 1v12c0 54 17.167 102 51.5 144s77.833 65.667 130.5 71c8 6 30.333 9 67 9c68 0 125.667 -17.667 173 -53c52 -39.333 78 -91.666 78 -156.999zM365 -6c0 -20 -7 -37 -21 -51
s-31 -21 -51 -21s-37 7 -51 21s-21 31 -21 51s7 37 21 51s31 21 51 21s37 -7 51 -21s21 -31 21 -51z" />
    <glyph glyph-name="at" unicode="@" horiz-adv-x="867" 
d="M688 38c-40.667 -37.333 -82.668 -55.9971 -126.001 -55.9971c-36 0 -68 12.167 -96 36.5s-46.333 55.166 -55 92.499c-10 -8 -30 -12 -60 -12c-41.333 0 -74 11.5 -98 34.5s-36 55.167 -36 96.5c0 39.333 11.667 72.5 35 99.5s54.333 40.5 93 40.5
c12.667 0 24.334 -3 35.001 -9l2 24l119 -4c-16.667 -90.667 -25 -158.334 -25 -203.001c0 -24 2.66699 -39 8 -45c19.333 -20 38.333 -30 57 -30c22.667 0 41.334 13.5 56.001 40.5s22 60.5 22 100.5c0 58 -15.333 113.333 -46 166c-34 57.333 -95 86 -183 86
c-58 0 -105.667 -13.333 -143 -40c-84.667 -59.333 -127 -128 -127 -206c0 -62 28.333 -116 85 -162c-14.667 -34.667 -30.334 -77.334 -47.001 -128.001c-26.667 0 -59 34.333 -97 103c-43.333 77.333 -61.666 155 -54.999 233c9.33301 100 62 183 158 249
c79.333 54.667 156.666 82 231.999 82c116 0 211 -58 285 -174c52.667 -82.667 79 -162.667 79 -240c0 -72 -24 -130.333 -72 -175zM385.999 232.003c0 12 -4.16699 22 -12.5 30s-18.5 12 -30.5 12s-22.167 -4 -30.5 -12s-12.5 -18 -12.5 -30
c0 -11.333 4.33301 -21.166 13 -29.499s18.667 -12.5 30 -12.5s21.333 4.16699 30 12.5s13 18.166 13 29.499z" />
    <glyph glyph-name="A" unicode="A" horiz-adv-x="552" 
d="M427 20l-413 -4l100 692l189 -2zM280 185c0 16.667 -6.16699 30.834 -18.5 42.501s-26.833 17.5 -43.5 17.5s-31.167 -5.83301 -43.5 -17.5s-18.5 -25.834 -18.5 -42.501s6.16699 -30.834 18.5 -42.501s26.833 -17.5 43.5 -17.5s31.167 5.83301 43.5 17.5
s18.5 25.834 18.5 42.501z" />
    <glyph glyph-name="B" unicode="B" horiz-adv-x="383" 
d="M258 210c0 -44.667 -26.333 -87.668 -79 -129.001c-50 -39.333 -98.333 -59 -145 -59c-2 0 -5 0.333008 -9 1h-10c-4.66699 6 -7 207.333 -7 604v108c44.667 -10 89.667 -38.333 135 -85c47.333 -49.333 71 -95.666 71 -138.999c0 -24 -8 -49.5 -24 -76.5
s-24 -42.833 -24 -47.5c0 -4 4 -8.66699 12 -14c12 -7.33301 18.333 -11.333 19 -12c40.667 -40 61 -90.333 61 -151z" />
    <glyph glyph-name="C" unicode="C" horiz-adv-x="521" 
d="M372 37l-18 -1c-96.667 -5.33301 -176.667 26.667 -240 96c-61.333 66.667 -92 149.667 -92 249c0 84 34.333 158.667 103 224c60.667 58 135 98.333 223 121z" />
    <glyph glyph-name="D" unicode="D" horiz-adv-x="415" 
d="M292 398c0 -93.333 -24.333 -175.999 -73 -247.999c-52 -76.667 -121.667 -126.334 -209 -149.001l3 735c74.667 -30 138 -73.667 190 -131c59.333 -65.333 89 -134.333 89 -207z" />
    <glyph glyph-name="E" unicode="E" horiz-adv-x="423" 
d="M358 380c0 -15.333 -5.5 -28.5 -16.5 -39.5s-23.833 -16.5 -38.5 -16.5c-15.333 0 -28.666 5.5 -39.999 16.5s-17 24.167 -17 39.5c0 14.667 5.66699 27.5 17 38.5s24.666 16.5 39.999 16.5s28.333 -5.33301 39 -16s16 -23.667 16 -39zM302 219l-4 -198l-282 19l-9 663
h281l10 -150l-157 -182l4 -8z" />
    <glyph glyph-name="F" unicode="F" horiz-adv-x="413" 
d="M323 368c0 -15.333 -5.5 -28.666 -16.5 -39.999s-24.167 -17 -39.5 -17s-28.666 5.66699 -39.999 17s-17 24.666 -17 39.999s5.66699 28.5 17 39.5s24.666 16.5 39.999 16.5s28.5 -5.5 39.5 -16.5s16.5 -24.167 16.5 -39.5zM300 551l-157.999 -184
c7.33301 -28.667 11.666 -84.667 12.999 -168c2 -117.333 3 -177 3 -179l-140 11l-12 672l292 -4z" />
    <glyph glyph-name="G" unicode="G" horiz-adv-x="472" 
d="M363 496l-9.99902 -475.999c-96 8 -176.667 52.333 -242 133c-62.667 77.333 -94 165 -94 263c0 73.333 24 142.666 72 207.999c45.333 62.667 103 108.667 173 138l-2 -254c23.333 -1.33301 57.666 -5.33301 102.999 -12z" />
    <glyph glyph-name="H" unicode="H" horiz-adv-x="456" 
d="M350 691l-7 -655l-65 -2v102l-180 4l-17 -119l-71 7v680l56 -10l6 -113l194 -9l12 112z" />
    <glyph glyph-name="I" unicode="I" horiz-adv-x="263" 
d="M153 690l-14 -679l-121 24l-6 663z" />
    <glyph glyph-name="J" unicode="J" horiz-adv-x="552" 
d="M357 20c-106 3.33301 -188.667 33.333 -248 90c-62 58.667 -93 140.667 -93 246c0 18.667 0.666992 32.667 2 42l202 11l11 279h112z" />
    <glyph glyph-name="K" unicode="K" horiz-adv-x="543" 
d="M364 19l-231 75.999l-3 -75l-128 -10l18 688l122 2c0.666992 -7.33301 1 -18.666 1 -33.999c0 -20 -0.333008 -35.333 -1 -46c20.667 8.66699 94.667 37 222 85l-4 -227l-90 -103l90 -76z" />
    <glyph glyph-name="L" unicode="L" horiz-adv-x="398" 
d="M277 11l-265 10l-1 687l109 -5l-1 -255l153 -14z" />
    <glyph glyph-name="M" unicode="M" horiz-adv-x="841" 
d="M692 36l-160 -18l-26 83l-148 -57l-160 59l-26 -83l-160 18l9 672l323 -156v-3l324 157z" />
    <glyph glyph-name="N" unicode="N" horiz-adv-x="474" 
d="M357 34l-172 73l-18 -86l-158 9v687l202 -105l3 88l139 -2z" />
    <glyph glyph-name="O" unicode="O" horiz-adv-x="858" 
d="M730 401c0 -102 -38.168 -192.333 -114.501 -271s-165.5 -118 -267.5 -118s-183.167 31.667 -243.5 95s-90.5 146 -90.5 248c0 102.667 32.667 193.667 98 273c69.333 83.333 154.333 125 255 125c102.667 0 188.834 -33.167 258.501 -99.5s104.5 -150.5 104.5 -252.5z
" />
    <glyph glyph-name="P" unicode="P" horiz-adv-x="368" 
d="M262 379c0 -45.333 -13.332 -93.334 -39.999 -144.001c-24.667 -46.667 -55.334 -86 -92.001 -118v-110l-121 -2l4 727c91.333 -31.333 153.333 -69.666 186 -114.999c30 -40.667 50.333 -110.667 61 -210c1.33301 -12 2 -21.333 2 -28z" />
    <glyph glyph-name="Q" unicode="Q" horiz-adv-x="886" 
d="M797 159c0 -7.33301 -9 -28.666 -27 -63.999s-29.333 -53 -34 -53c-2.66699 0 -24.5 14.667 -65.5 44s-63.167 44 -66.5 44c-14 -12 -30 -25 -48 -39c-64.667 -46.667 -134 -70 -208 -70c-101.333 0 -182.333 31.667 -243 95s-91 146 -91 248
c0 102.667 33 193.667 99 273c69.333 83.333 154 125 254 125c102.667 0 188.834 -33.167 258.501 -99.5s104.5 -150.5 104.5 -252.5c0 -34 -5.66699 -69.667 -17 -107c-0.666992 -2 -3.33398 -8.66699 -8.00098 -20s-7 -18 -7 -20c0 -2.66699 16.5 -19.834 49.5 -51.501
s49.5 -49.167 49.5 -52.5z" />
    <glyph glyph-name="R" unicode="R" horiz-adv-x="506" 
d="M499 14h-485.001c0 163.333 -2.66699 407.666 -8 732.999c72.667 -20 133.334 -59.667 182.001 -119c48.667 -61.333 73 -129.333 73 -204c0 -38.667 -8 -79.167 -24 -121.5s-36.667 -79.166 -62 -110.499l324 -148v-30z" />
    <glyph glyph-name="S" unicode="S" horiz-adv-x="592" 
d="M471 218c0 -136.667 -87.667 -205.001 -263 -205.001c-79.333 0 -145.333 6.66699 -198 20v152l147 5v43c-64.667 60.667 -102 98.334 -112 113.001c-24 36 -36 87.333 -36 154c0 136 92 204 276 204c59.333 0 114 -6 164 -18v-175l-140 -13
c60.667 -43.333 101.667 -82 123 -116c26 -41.333 39 -96 39 -164z" />
    <glyph glyph-name="T" unicode="T" horiz-adv-x="429" 
d="M318 258l-77 -2l-9 -245l-136 3l4 229l-89 20l2 415h301z" />
    <glyph glyph-name="U" unicode="U" horiz-adv-x="606" 
d="M491 359c0 -93.333 -15.667 -170.333 -47 -231c-41.333 -78 -104.333 -117 -189 -117c-93.333 0 -159 35 -197 105c-28.667 52.667 -43 129.667 -43 231l1 315l446 24c6 -54.667 12.333 -109 19 -163c6.66699 -65.333 10 -120 10 -164z" />
    <glyph glyph-name="V" unicode="V" horiz-adv-x="644" 
d="M478 698c-0.666992 -25.333 -6 -57 -16 -95l-25 -94l-115 -491l-184 -9l-120 689c113.333 2 226.333 3 339 3c0.666992 0 41 -1 121 -3z" />
    <glyph glyph-name="W" unicode="W" horiz-adv-x="1001" 
d="M828 680c0 -22.667 -4.66699 -52 -14 -88l-23 -87l-112 -479l-183 -9l-74 430l-100 -421l-182 -9l-125 663l628 2h147l21 -1h13c2.66699 -2.66699 4 -3 4 -1z" />
    <glyph glyph-name="X" unicode="X" horiz-adv-x="515" 
d="M350 33l-181 112.001l-167 -121l9 229l79 110l-70 116l1 197c16 -10.667 62.333 -45.334 139 -104.001l190 111v-192l-104 -112l104 -139v-207z" />
    <glyph glyph-name="Y" unicode="Y" horiz-adv-x="455" 
d="M367 679l-64 -224.999c-35.333 -126 -53 -192.333 -53 -199c0 -30.667 0.666992 -70.334 2 -119.001c1.33301 -62 2 -102 2 -120l-135 3c2.66699 100 4 175.667 4 227c0 8 -35.667 152.333 -107 433h351z" />
    <glyph glyph-name="Z" unicode="Z" horiz-adv-x="577" 
d="M434 14l-427 1.99902l-1 44c-0.666992 36 0.333008 85.333 3 148c2.66699 70.667 4 120.334 4 149.001l136 143l-134 12l-6 179l411 -9l14 -334l-123 -126v-46l123 -5v-157z" />
    <glyph glyph-name="bracketleft" unicode="[" horiz-adv-x="423" 
d="M312 -46l-4 -158l-289 31l4 860l283 -1l2 -98l-157 -101v-464z" />
    <glyph glyph-name="backslash" unicode="\" horiz-adv-x="789" 
d="M715 -184l-242 -6l-465 981l187 -9c2 0 175.333 -322 520 -966z" />
    <glyph glyph-name="bracketright" unicode="]" horiz-adv-x="453" 
d="M313 -188l-297 3v92l163 107v494l-161 68l5 128l281 -19z" />
    <glyph glyph-name="asciicircum" unicode="^" horiz-adv-x="551" 
d="M446 558l-424 8l204 204l50 4z" />
    <glyph glyph-name="underscore" unicode="_" horiz-adv-x="622" 
d="M533 -19l-4 -176l-519 31l-2 167l521 -17c0 -4 1.33301 -5.66699 4 -5z" />
    <glyph glyph-name="grave" unicode="`" horiz-adv-x="346" 
d="M248 548l-20 -20l-211 150l55 122z" />
    <glyph glyph-name="a" unicode="a" 
d="M401 20c-61.333 6.66699 -91.333 11.001 -90 13.001c-14 -14 -46.667 -21 -98 -21c-65.333 0 -116.833 18.167 -154.5 54.5s-56.5 87.166 -56.5 152.499c0 62 17.667 114 53 156c38 44.667 87.333 67 148 67c20 0 38.667 -5 56 -15l4 37l138 1v-445zM263 223.001
c0 16.667 -6.16699 30.834 -18.5 42.501s-26.833 17.5 -43.5 17.5s-31.167 -5.83301 -43.5 -17.5s-18.5 -25.834 -18.5 -42.501s6.16699 -31 18.5 -43s26.833 -18 43.5 -18s31.167 6 43.5 18s18.5 26.333 18.5 43z" />
    <glyph glyph-name="b" unicode="b" horiz-adv-x="543" 
d="M426 252c0 -66 -27.333 -123 -82 -171c-52 -46.667 -111.333 -70 -178 -70c-12.667 0 -22.334 0.333008 -29.001 1v-1l-125 24l-5 663l141 -8l-4 -237c18.667 7.33301 39.334 11 62.001 11c62 0 114.167 -20 156.5 -60s63.5 -90.667 63.5 -152zM252 237
c0 16.667 -6 30.834 -18 42.501s-26.333 17.5 -43 17.5c-17.333 0 -32.166 -5.83301 -44.499 -17.5s-18.5 -25.834 -18.5 -42.501s6.16699 -31 18.5 -43s27.166 -18 44.499 -18c16.667 0 31 6 43 18s18 26.333 18 43z" />
    <glyph glyph-name="c" unicode="c" horiz-adv-x="403" 
d="M253 20h-7c-70 0 -127.167 22.5 -171.5 67.5s-66.5 102.833 -66.5 173.5c0 58.667 24 111 72 157c42.667 40.667 94.667 69 156 85z" />
    <glyph glyph-name="d" unicode="d" horiz-adv-x="503" 
d="M401 693l-3.00098 -663c-76 -4.66699 -141 -7 -195 -7c-61.333 0 -110.166 19.167 -146.499 57.5s-54.5 88.5 -54.5 150.5c0 61.333 21.5 116.833 64.5 166.5s95.167 74.5 156.5 74.5c10.667 0 22.667 -1.66699 36 -5l-3 231zM282.999 234c0 16.667 -6 30.834 -18 42.501
s-26.667 17.5 -44 17.5c-16.667 0 -31.167 -5.83301 -43.5 -17.5s-18.5 -25.834 -18.5 -42.501s6.16699 -30.834 18.5 -42.501s26.833 -17.5 43.5 -17.5c17.333 0 32 5.83301 44 17.5s18 25.834 18 42.501z" />
    <glyph glyph-name="e" unicode="e" horiz-adv-x="561" 
d="M442 263c-30 -2.66699 -64.333 -3.99902 -103 -3.99902c-58 0 -101.333 0.333008 -130 1l3 -243c-60 3.33301 -108.667 23.666 -146 60.999s-56 86 -56 146c0 62.667 19.667 117.667 59 165c42 50.667 93.667 76 155 76c64 0 115.667 -17.333 155 -52
c41.333 -36.667 62.333 -86.667 63 -150z" />
    <glyph glyph-name="f" unicode="f" horiz-adv-x="464" 
d="M395 565c0 -19.333 -7 -35.833 -21 -49.5s-30.667 -20.5 -50 -20.5s-36 6.83301 -50 20.5s-21 30.167 -21 49.5s7 35.833 21 49.5s30.667 20.5 50 20.5s36 -6.83301 50 -20.5s21 -30.167 21 -49.5zM305 304l-76.999 -2.00098l-1 -288l-136 2v284l-93 9l8 156h86
c2 62.667 10.333 107.334 25 134.001c19.333 36 56.666 58.667 111.999 68v-196l73 -6z" />
    <glyph glyph-name="g" unicode="g" horiz-adv-x="545" 
d="M439 -109c0 -46 -13 -86.168 -39 -120.501s-61.333 -57.5 -106 -69.5l-79 82c32 21.333 48 52 48 92c0 30.667 -10.833 56.667 -32.5 78s-47.5 32 -77.5 32c-26 0 -49.333 -8.5 -70 -25.5s-30.667 -25.5 -30 -25.5c-5.33301 0 -8 4 -8 12c0 12 6 28.333 18 49
c10 17.333 20.333 31.666 31 42.999c-56.667 42.667 -85 99.334 -85 170.001c0 59.333 25 110.333 75 153c47.333 41.333 101.333 62 162 62c50 0 93 -23 129 -69c33.333 -43.333 50 -90.666 50 -141.999c0 -67.333 -18.333 -119 -55 -155c46 -36.667 69 -92 69 -166z" />
    <glyph glyph-name="h" unicode="h" horiz-adv-x="396" 
d="M284 194c0 -56.667 -2.66602 -117.667 -7.99902 -183l-77 3l-15 113l-89 3l-14 -112l-70 3l-1 687l109 -5l-5 -256c27.333 -0.666992 53.666 -4 78.999 -10c36 -8.66699 58 -20.667 66 -36c16.667 -32 25 -101 25 -207z" />
    <glyph glyph-name="i" unicode="i" horiz-adv-x="258" 
d="M155 569c0 -18 -6.33301 -33.167 -19 -45.5s-28 -18.5 -46 -18.5c-17.333 0 -32.333 6.16699 -45 18.5s-19 27.5 -19 45.5c0 17.333 6.33301 32.166 19 44.499s27.667 18.5 45 18.5s32.5 -6.16699 45.5 -18.5s19.5 -27.166 19.5 -44.499zM160 455l-26 -444l-120 24l1 429
z" />
    <glyph glyph-name="j" unicode="j" horiz-adv-x="443" 
d="M326 529c0 -17.333 -6.33301 -32.166 -19 -44.499s-27.667 -18.5 -45 -18.5s-32.333 6.16699 -45 18.5s-19 27.166 -19 44.499s6.33301 32.166 19 44.499s27.667 18.5 45 18.5s32.333 -6.16699 45 -18.5s19 -27.166 19 -44.499zM296 415l-9 -604
c-186.667 0 -280 79.667 -280 239c0 1.33301 0.666992 6 2 14l179 16l8 335h100z" />
    <glyph glyph-name="k" unicode="k" horiz-adv-x="543" 
d="M368 217l-4 -198l-231 76l-3 -75l-128 -10l10 685l153 8l-5 -229l199 77l9 -156l-86 -121z" />
    <glyph glyph-name="l" unicode="l" horiz-adv-x="261" 
d="M150 690l-18 -679l-121 24l3 663z" />
    <glyph glyph-name="m" unicode="m" horiz-adv-x="597" 
d="M475 213c0 -74 -3.33496 -143.999 -10.002 -209.999l-77 12l-14 147l-90 3l-14 -154l-75 13l-14 146l-90 4l-17 -146l-63 13l1 421l93 40c1.33301 -6.66699 4 -17 8 -31c12.667 6.66699 27 10 43 10c42.667 0 72.334 -17 89.001 -51c20.667 26 57.334 39 110.001 39
c49.333 0 81.333 -15.667 96 -47c16 -34.667 24 -104.334 24 -209.001z" />
    <glyph glyph-name="n" unicode="n" horiz-adv-x="395" 
d="M280 221c0 -62 -3.33301 -132 -10 -210l-77 3l-14 156l-90 4l-15 -156l-64 3v441l93 40l8 -31c81.333 0 129.333 -13.667 144 -41c16.667 -31.333 25 -101 25 -209z" />
    <glyph glyph-name="o" unicode="o" horiz-adv-x="562" 
d="M440 252c0 -61.333 -23.168 -115.833 -69.501 -163.5s-100.166 -71.5 -161.499 -71.5s-110.166 19 -146.499 57s-54.5 88 -54.5 150c0 62.667 19.667 117.667 59 165c41.333 50.667 92.666 76 153.999 76c62 0 114 -20 156 -60s63 -91 63 -153z" />
    <glyph glyph-name="p" unicode="p" horiz-adv-x="358" 
d="M249 258c0 -32 -11.333 -67.668 -34 -107.001c-24 -43.333 -50.667 -69.333 -80 -78l-7 -262l-117 1v687c68 -11.333 112.333 -20.666 133 -27.999c32.667 -11.333 56.5 -30.5 71.5 -57.5s25.833 -71.5 32.5 -133.5c0 -2 0.333008 -5.66699 1 -11v-11z" />
    <glyph glyph-name="q" unicode="q" horiz-adv-x="529" 
d="M415 466l-1 -650l-142 -2l8 236c-19.333 -6.66699 -40 -10 -62 -10c-62 0 -113.333 20.667 -154 62s-61 93 -61 155c0 64.667 27.333 120.667 82 168c52.667 45.333 111.667 68 177 68c24 0 75 -9 153 -27zM286 265c0 16.667 -6 30.667 -18 42s-26.333 17 -43 17
s-31.334 -5.83301 -44.001 -17.5s-19 -25.5 -19 -41.5c0 -16.667 6.33301 -31 19 -43s27.334 -18 44.001 -18s31 6 43 18s18 26.333 18 43z" />
    <glyph glyph-name="r" unicode="r" horiz-adv-x="330" 
d="M275 421c0 -16 -6.83301 -31.167 -20.5 -45.5s-28.5 -21.5 -44.5 -21.5c-15.333 0 -28.833 5.66699 -40.5 17s-17.5 25 -17.5 41c0 15.333 5.83301 28.666 17.5 39.999s25.167 17 40.5 17c16.667 0 31 -3.66699 43 -11c14.667 -9.33301 22 -21.666 22 -36.999zM131 480
l-11 -469l-111 24l-9 453z" />
    <glyph glyph-name="s" unicode="s" horiz-adv-x="409" 
d="M329 153c0 -96 -61.332 -144 -183.999 -144c-55.333 0 -100 4.33301 -134 13v106l98 5v30c-42 40 -67 66.333 -75 79c-16 24 -24 59 -24 105c0 97.333 62.667 146 188 146c41.333 0 79.666 -4.33301 114.999 -13v-122l-92 -8c41.333 -30 69.333 -57.333 84 -82
c16 -28 24 -66.333 24 -115z" />
    <glyph glyph-name="t" unicode="t" horiz-adv-x="419" 
d="M311 409l-78 -3l-6 -392l-136 2l5 388l-85 9v156h87l-4 89l142 -8l-5 -81h77z" />
    <glyph glyph-name="u" unicode="u" horiz-adv-x="438" 
d="M344 251c0 -64.667 -11.333 -118.002 -34 -160.002c-28.667 -52.667 -72.667 -79 -132 -79c-69.333 0 -117 26 -143 78c-17.333 36 -26 93 -26 171c0 12.667 0.666992 46.334 2 101.001c1.33301 41.333 1.33301 75 0 101l312 17c14 -129.333 21 -205.666 21 -228.999z
" />
    <glyph glyph-name="v" unicode="v" horiz-adv-x="473" 
d="M394 471c-38 -136 -100.999 -285.668 -188.999 -449.001l-134 293c-16.667 34.667 -39.334 86.334 -68.001 155.001z" />
    <glyph glyph-name="w" unicode="w" horiz-adv-x="736" 
d="M612 465c-37.333 -135.333 -100.332 -284.999 -188.999 -448.999l-108 233c-32.667 -77.333 -69.334 -155 -110.001 -233l-133 289c-17.333 35.333 -40.333 88.666 -69 159.999h609z" />
    <glyph glyph-name="x" unicode="x" horiz-adv-x="510" 
d="M411 9h-387l152 224l-154 239h386l-146 -239z" />
    <glyph glyph-name="y" unicode="y" horiz-adv-x="437" 
d="M358 473c-83.333 -283.333 -140 -504 -170 -662h-119l45 229l-108 433h352z" />
    <glyph glyph-name="z" unicode="z" horiz-adv-x="418" 
d="M312 10h-293c-1.33301 52.667 -2 132.667 -2 240l49.5 49l48.5 49l-101 9v127l288 -6l10 -234l-86 -89v-32l86 -3v-110z" />
    <glyph glyph-name="braceleft" unicode="{" horiz-adv-x="467" 
d="M356 -39l-5 -157l-288 30l1 334l-60 91l61 84l1 351l283 -1l2 -97l-157 -102v-144l-60 -91l60 -91v-138z" />
    <glyph glyph-name="bar" unicode="|" horiz-adv-x="247" 
d="M150 690l-23 -885l-121 24l3 869z" />
    <glyph glyph-name="braceright" unicode="}" horiz-adv-x="453" 
d="M378 279l-69 -89l4 -371l-297 3v93l163 106v162l70 96l-70 84v152l-161 69l5 127l281 -18l3 -326z" />
    <glyph glyph-name="asciitilde" unicode="~" horiz-adv-x="471" 
d="M323 486c-6 -21.333 -19.332 -38.167 -39.999 -50.5s-42.667 -18.5 -66 -18.5c-37.333 0 -66.333 23.667 -87 71h-122c20 48 50.333 72 91 72c53.333 0 86.666 -23.333 99.999 -70z" />
    <glyph glyph-name="nonbreakingspace" unicode="&#xa0;" horiz-adv-x="159" 
 />
    <glyph glyph-name="exclamdown" unicode="&#xa1;" horiz-adv-x="269" 
d="M145 748c0 -17.333 -6.5 -32.333 -19.5 -45s-28.167 -19 -45.5 -19s-32.333 6.33301 -45 19s-19 27.667 -19 45s6.33301 32.333 19 45s27.667 19 45 19s32.5 -6.33301 45.5 -19s19.5 -27.667 19.5 -45zM208 55l-190 -20l-6 603l131 -8z" />
    <glyph glyph-name="cent" unicode="&#xa2;" horiz-adv-x="366" 
d="M261 144l-15 0.000976562c-8 0 -19.333 0.666992 -34 2l-2 -135l-109 24l-2 161c-55.333 45.333 -83 108.333 -83 189c0 63.333 26.333 117.666 79 162.999l-2 150l127 -8l-1 -71l25 8z" />
    <glyph glyph-name="sterling" unicode="&#xa3;" horiz-adv-x="540" 
d="M331 359c0 -13.333 -4.66699 -25.002 -14 -35.002s-20.666 -15 -33.999 -15s-24.833 5 -34.5 15s-14.5 21.667 -14.5 35c0 12.667 4.83301 23.834 14.5 33.501s21.167 14.5 34.5 14.5s24.666 -4.66699 33.999 -14s14 -20.666 14 -33.999zM423 537.998
c0 -4 -5.33496 -6.66797 -16.002 -8.00098c-21.333 -1.33301 -42.666 -2.33301 -63.999 -3c-32.667 -2 -51 -5.33301 -55 -10l-151 -175l4 -8l273 -150l-5 -190l-386 29l-13 515c-1.33301 54.667 19.334 101.334 62.001 140.001c40.667 38 88.667 57 144 57
c56 0 104.5 -19 145.5 -57s61.5 -84.667 61.5 -140z" />
    <glyph glyph-name="currency" unicode="&#xa4;" horiz-adv-x="486" 
d="M404 303l-47.999 -4.00195c-19.333 -35.333 -46.666 -62.666 -81.999 -81.999l-5 -79l-136 2l2 63c-50.667 14.667 -84.334 47 -101.001 97h-36l8 155h36c22 48.667 54.667 82 98 100l-2 85l142 -9l-2 -81c41.333 -19.333 70.666 -48.666 87.999 -87.999l35 2z
M260.001 375.998c0 16.667 -6.16699 30.834 -18.5 42.501s-26.833 17.5 -43.5 17.5s-31.167 -5.83301 -43.5 -17.5s-18.5 -25.834 -18.5 -42.501s6.16699 -31 18.5 -43s26.833 -18 43.5 -18s31.167 6 43.5 18s18.5 26.333 18.5 43z" />
    <glyph glyph-name="yen" unicode="&#xa5;" horiz-adv-x="452" 
d="M367 685l-67 -245l50 -2l-3 -158l-90 6l-7 -50l106 -3l-3 -134l-100 8l1 -85l-135 2l2 100l-113 8l-1 91l115 5l-9 67l-105 6l-5 143l71 7l-58 224z" />
    <glyph glyph-name="brokenbar" unicode="&#xa6;" horiz-adv-x="263" 
d="M164 717l-12 -347l-135 -3l3 353zM154 348l-15 -377l-121 24l3 356z" />
    <glyph glyph-name="section" unicode="&#xa7;" horiz-adv-x="536" 
d="M429 278c0 -11.333 -2.66699 -23.334 -8 -36.001c-3.33301 -8.66699 -9 -19 -17 -31c-10 -16 -15.667 -25 -17 -27l22 -49c9.33301 -22 14 -42 14 -60c0 -123.333 -78.667 -185 -236 -185c-70.667 0 -130.334 6 -179.001 18v137l153 4v39l-79.5 70.5
c-26.333 23.667 -44.833 46.167 -55.5 67.5c-12.667 26.667 -19 60.667 -19 102c0 16 5.33301 33.333 16 52l27 41l-15 30c-7.33301 13.333 -12.666 25.333 -15.999 36c-4.66699 14.667 -7 29.334 -7 44.001c0 122.667 83 184 249 184c52.667 0 101.667 -5.66699 147 -17
v-156l-145 -12c60.667 -44 101 -79 121 -105c30 -38.667 45 -87.667 45 -147zM280 302.999c0 16.667 -6.16699 30.834 -18.5 42.501s-26.833 17.5 -43.5 17.5s-31.167 -5.83301 -43.5 -17.5s-18.5 -25.834 -18.5 -42.501s6.16699 -30.834 18.5 -42.501
s26.833 -17.5 43.5 -17.5s31.167 5.83301 43.5 17.5s18.5 25.834 18.5 42.501z" />
    <glyph glyph-name="dieresis" unicode="&#xa8;" horiz-adv-x="391" 
d="M319 710c0 -16 -5.83301 -29.667 -17.5 -41s-25.167 -17 -40.5 -17c-16 0 -29.833 5.66699 -41.5 17s-17.5 25 -17.5 41s5.83301 29.667 17.5 41s25.5 17 41.5 17c15.333 0 28.833 -5.66699 40.5 -17s17.5 -25 17.5 -41zM136 703c0 -16 -5.83301 -29.667 -17.5 -41
s-25.5 -17 -41.5 -17c-15.333 0 -28.833 5.66699 -40.5 17s-17.5 25 -17.5 41s5.83301 29.667 17.5 41s25.167 17 40.5 17c16 0 29.833 -5.66699 41.5 -17s17.5 -25 17.5 -41z" />
    <glyph glyph-name="copyright" unicode="&#xa9;" horiz-adv-x="858" 
d="M730 415c0 -102 -38.168 -192.333 -114.501 -271s-165.5 -118 -267.5 -118s-183.167 31.667 -243.5 95s-90.5 146 -90.5 248c0 102.667 32.667 193.667 98 273c69.333 83.333 154.333 125 255 125c102.667 0 188.834 -33.167 258.501 -99.5s104.5 -150.5 104.5 -252.5z
M374.999 165l-13.999 414.001c-52.667 -14 -97.334 -38.333 -134.001 -73c-41.333 -39.333 -62 -84 -62 -134c0 -60.667 19 -110.334 57 -149.001s87 -58 147 -58h6z" />
    <glyph glyph-name="ordfeminine" unicode="&#xaa;" 
d="M366 367c-44.667 5.33301 -66.334 8.66699 -65.001 10c-10 -10 -33.333 -15 -70 -15c-47.333 0 -84.666 13 -111.999 39s-41 62.667 -41 110c0 44 13.333 81.833 40 113.5s61.667 47.5 105 47.5c11.333 0 25 -3.66699 41 -11l2 27h99zM266 514.001
c0 12 -4.33301 22.167 -13 30.5s-19 12.5 -31 12.5s-22.5 -4.16699 -31.5 -12.5s-13.5 -18.5 -13.5 -30.5s4.5 -22.333 13.5 -31s19.5 -13 31.5 -13s22.333 4.33301 31 13s13 19 13 31zM378 179.001l-320 27v132l337 -3c0 -18 -2.66699 -44 -8 -78s-8.33301 -60 -9 -78z" />
    <glyph glyph-name="guillemotleft" unicode="&#xab;" horiz-adv-x="537" 
d="M388 103l-122 120l2 -131l-265 217l256 242l2 -120l118 131z" />
    <glyph glyph-name="logicalnot" unicode="&#xac;" 
 />
    <glyph glyph-name="minus" unicode="&#xad;" horiz-adv-x="480" 
d="M386 419l-3 -176l-376 31l-6 167l382 -17c0 -4 1 -5.66699 3 -5z" />
    <glyph glyph-name="minus" unicode="&#x2212;" horiz-adv-x="480" 
d="M386 419l-3 -176l-376 31l-6 167l382 -17c0 -4 1 -5.66699 3 -5z" />
    <glyph glyph-name="registered" unicode="&#xae;" horiz-adv-x="851" 
d="M730 422c0 -102 -38.168 -193.5 -114.501 -274.5s-165.5 -121.5 -267.5 -121.5s-183.167 31.667 -243.5 95s-90.5 146 -90.5 248c0 102.667 32.667 193.667 98 273c69.333 83.333 154.333 125 255 125c102.667 0 188.834 -32 258.501 -96s104.5 -147 104.5 -249z
M508.999 190l-198 84c34.667 42.667 52 89 52 139c0 44.667 -14.667 85.334 -44 122.001s-65.666 60.667 -108.999 72c1.33301 -32.667 3.66602 -179.334 6.99902 -440.001h289z" />
    <glyph glyph-name="macron" unicode="&#xaf;" horiz-adv-x="472" 
d="M377 795l-4 -126.001l-355 30l-16 118l371 -18c0.666992 -3.33301 2 -4.66602 4 -3.99902z" />
    <glyph glyph-name="macron" unicode="&#x2c9;" horiz-adv-x="472" 
d="M377 795l-4 -126.001l-355 30l-16 118l371 -18c0.666992 -3.33301 2 -4.66602 4 -3.99902z" />
    <glyph glyph-name="degree" unicode="&#xb0;" horiz-adv-x="376" 
d="M246 636c0 -32 -12.166 -60.501 -36.499 -85.501s-52.5 -37.5 -84.5 -37.5s-57.5 10 -76.5 30s-28.5 46 -28.5 78c0 32.667 10.667 61.834 32 87.501s47.666 38.5 78.999 38.5c32.667 0 60 -10.5 82 -31.5s33 -47.5 33 -79.5zM192.001 623.999
c0 16.667 -6 30.834 -18 42.501s-26.333 17.5 -43 17.5c-17.333 0 -32.166 -5.83301 -44.499 -17.5s-18.5 -25.834 -18.5 -42.501s6.16699 -31 18.5 -43s27.166 -18 44.499 -18c16.667 0 31 6 43 18s18 26.333 18 43z" />
    <glyph glyph-name="plusminus" unicode="&#xb1;" horiz-adv-x="461" 
d="M341 357l-77 -3l-9 -124l-136 2l4 130h-119l8 155h116l-4 145l142 -9l-5 -136h78zM366 168l-3 -176l-356 30l-3 168l358 -17c0 -4 1.33301 -5.66699 4 -5z" />
    <glyph glyph-name="twosuperior" unicode="&#xb2;" horiz-adv-x="354" 
 />
    <glyph glyph-name="threesuperior" unicode="&#xb3;" horiz-adv-x="378" 
 />
    <glyph glyph-name="acute" unicode="&#xb4;" horiz-adv-x="420" 
d="M319 770l-210 -170l-87 9l139 170z" />
    <glyph glyph-name="mu" unicode="&#xb5;" 
 />
    <glyph glyph-name="mu" unicode="&#x3bc;" 
 />
    <glyph glyph-name="paragraph" unicode="&#xb6;" horiz-adv-x="694" 
d="M489 704c-2 0 -4.66699 -259.668 -8 -779.001h-131l10 270h-63l-7 -270h-111l6 280c-36 6.66699 -66.667 20.667 -92 42c-60.667 50.667 -89.667 133 -87 247c2 82.667 45 142.334 129 179.001c60 26 137.333 39 232 39c46 0 86.667 -2.66699 122 -8z" />
    <glyph glyph-name="periodcentered" unicode="&#xb7;" horiz-adv-x="188" 
d="M126 362c0 -16 -5.83301 -29.667 -17.5 -41s-25.167 -17 -40.5 -17c-16 0 -29.833 5.66699 -41.5 17s-17.5 25 -17.5 41s5.83301 29.667 17.5 41s25.5 17 41.5 17c15.333 0 28.833 -5.66699 40.5 -17s17.5 -25 17.5 -41z" />
    <glyph glyph-name="periodcentered" unicode="&#x2219;" horiz-adv-x="188" 
d="M126 362c0 -16 -5.83301 -29.667 -17.5 -41s-25.167 -17 -40.5 -17c-16 0 -29.833 5.66699 -41.5 17s-17.5 25 -17.5 41s5.83301 29.667 17.5 41s25.5 17 41.5 17c15.333 0 28.833 -5.66699 40.5 -17s17.5 -25 17.5 -41z" />
    <glyph glyph-name="cedilla" unicode="&#xb8;" horiz-adv-x="270" 
d="M132 -187l-112 3l103 176z" />
    <glyph glyph-name="onesuperior" unicode="&#xb9;" horiz-adv-x="191" 
 />
    <glyph glyph-name="ordmasculine" unicode="&#xba;" horiz-adv-x="486" 
d="M363 569c0 -50.667 -19.001 -95.832 -57.001 -135.499s-82.667 -59.5 -134 -59.5c-50.667 0 -91.167 16 -121.5 48s-45.5 73.333 -45.5 124c0 51.333 16.333 96.666 49 135.999c34.667 42 77.334 63 128.001 63c51.333 0 94.333 -16.667 129 -50s52 -75.333 52 -126z
M363.999 190.002l-319.999 27v147l320 -12c0 -18 0.166992 -45 0.5 -81s0.166016 -63 -0.500977 -81z" />
    <glyph glyph-name="guillemotright" unicode="&#xbb;" horiz-adv-x="433" 
d="M420 318l-264 -212l1 134l-148 -124l5 449l146 -156l2 158z" />
    <glyph glyph-name="onequarter" unicode="&#xbc;" horiz-adv-x="687" 
d="M588 275l-2 -92.001l-44 2c-0.666992 -10 -1 -33.333 -1 -70c-0.666992 -40 0 -61.667 2 -65c-33.333 -4 -59.333 -6 -78 -6v145l-173 -3l237 279c0 -4.66699 -0.666992 -28 -2 -70c-0.666992 -35.333 -0.666992 -62 0 -80c0.666992 -25.333 3 -38.666 7 -39.999
c7.33301 -2 16.333 -2.66699 27 -2zM166 757.999l-7 -407l-72 15l-5 315l-35 3l34 80zM519 696.999l-407 -718l-97 76l382 714z" />
    <glyph glyph-name="onehalf" unicode="&#xbd;" horiz-adv-x="687" 
d="M166 758l-7 -407l-72 15l-5 315l-35 3l34 80zM583 292c0 -38.667 -13 -78.6689 -39 -120.002c-24 -38 -53.333 -69 -88 -93l126 -21l-1 -79l-258 10c0 8 0.333008 20 1 36v37c0 13.333 -0.666992 20 -2 20l-1 -1l1 1v0l112 89c-30.667 4.66699 -56.5 18.334 -77.5 41.001
s-31.5 49.667 -31.5 81c0 34.667 12.667 63.834 38 87.501s55.333 35.5 90 35.5c35.333 0 65.833 -12 91.5 -36s38.5 -53.333 38.5 -88zM519 696.998l-407 -718l-97 76l382 714z" />
    <glyph glyph-name="threequarters" unicode="&#xbe;" horiz-adv-x="745" 
 />
    <glyph glyph-name="questiondown" unicode="&#xbf;" horiz-adv-x="665" 
d="M311 666c0 -20 -7.16699 -37.167 -21.5 -51.5s-31.5 -21.5 -51.5 -21.5c-19.333 0 -36.166 7.16699 -50.499 21.5s-21.5 31.5 -21.5 51.5c0 19.333 7.16699 36.166 21.5 50.499s31.166 21.5 50.499 21.5c20 0 37.167 -7.16699 51.5 -21.5s21.5 -31.166 21.5 -50.499z
M522 172c0 -53.333 -17.167 -101 -51.5 -143s-77.833 -66 -130.5 -72c-6.66699 -5.33301 -29 -8 -67 -8c-68 0 -125.667 17.667 -173 53c-52 38.667 -78 90.667 -78 156v10l162 396l28 1c18 0.666992 44.333 -0.333008 79 -3l-90 -376l321 -2v-12z" />
    <glyph glyph-name="Agrave" unicode="&#xc0;" horiz-adv-x="552" 
d="M309 641h-58l-170 106l55 122zM427 20l-413 -4l100 612l192 -7zM280 185c0 16.667 -6.16699 30.834 -18.5 42.501s-26.833 17.5 -43.5 17.5s-31.167 -5.83301 -43.5 -17.5s-18.5 -25.834 -18.5 -42.501s6.16699 -30.834 18.5 -42.501s26.833 -17.5 43.5 -17.5
s31.167 5.83301 43.5 17.5s18.5 25.834 18.5 42.501z" />
    <glyph glyph-name="Aacute" unicode="&#xc1;" horiz-adv-x="552" 
d="M450 868l-216 -164h-78l129 170zM427 20l-413 -4l100 667l189 -2zM280 185c0 16.667 -6.16699 30.834 -18.5 42.501s-26.833 17.5 -43.5 17.5s-31.167 -5.83301 -43.5 -17.5s-18.5 -25.834 -18.5 -42.501s6.16699 -30.834 18.5 -42.501s26.833 -17.5 43.5 -17.5
s31.167 5.83301 43.5 17.5s18.5 25.834 18.5 42.501z" />
    <glyph glyph-name="Acircumflex" unicode="&#xc2;" horiz-adv-x="552" 
d="M402 643c-174.667 0 -295.667 2.33301 -363 7l174 175l44 3zM427 20l-413 -4l100 612l189 -2zM280 185c0 16.667 -6.16699 30.834 -18.5 42.501s-26.833 17.5 -43.5 17.5s-31.167 -5.83301 -43.5 -17.5s-18.5 -25.834 -18.5 -42.501s6.16699 -30.834 18.5 -42.501
s26.833 -17.5 43.5 -17.5s31.167 5.83301 43.5 17.5s18.5 25.834 18.5 42.501z" />
    <glyph glyph-name="Atilde" unicode="&#xc3;" horiz-adv-x="552" 
d="M371 728c-6 -21.333 -19.332 -38.167 -39.999 -50.5s-42.667 -18.5 -66 -18.5c-18 0 -35.333 7.66699 -52 23c-14.667 13.333 -26 29.333 -34 48h-123c21.333 48 51.666 72 90.999 72c54 0 87.333 -23.333 100 -70zM427.001 19.999l-413 -4l100 622l189 -2z
M280.001 184.999c0 16.667 -6.16699 30.834 -18.5 42.501s-26.833 17.5 -43.5 17.5s-31.167 -5.83301 -43.5 -17.5s-18.5 -25.834 -18.5 -42.501s6.16699 -30.834 18.5 -42.501s26.833 -17.5 43.5 -17.5s31.167 5.83301 43.5 17.5s18.5 25.834 18.5 42.501z" />
    <glyph glyph-name="Adieresis" unicode="&#xc4;" horiz-adv-x="552" 
d="M371 709c0 -16 -5.83301 -29.666 -17.5 -40.999s-25.5 -17 -41.5 -17s-29.667 5.16699 -41 15.5s-17 23.166 -17 38.499c0 16 5.66699 30.333 17 43s25 19 41 19s29.833 -5.66699 41.5 -17s17.5 -25 17.5 -41zM186 702.001c0 -16 -5.83301 -29.667 -17.5 -41
s-25.167 -17 -40.5 -17c-16 0 -29.833 5.66699 -41.5 17s-17.5 25 -17.5 41s5.83301 29.667 17.5 41s25.5 17 41.5 17c15.333 0 28.833 -5.66699 40.5 -17s17.5 -25 17.5 -41zM438 7.00098l-414 -4l100 627l189 -3zM289 176.001c0 16.667 -6 30.834 -18 42.501
s-26.333 17.5 -43 17.5c-17.333 0 -32.166 -5.83301 -44.499 -17.5s-18.5 -25.834 -18.5 -42.501s6.16699 -31 18.5 -43s27.166 -18 44.499 -18c16.667 0 31 6 43 18s18 26.333 18 43z" />
    <glyph glyph-name="Aring" unicode="&#xc5;" horiz-adv-x="552" 
d="M427 13l-413 -4.00098l103 550c-20.667 27.333 -31 56.333 -31 87c0 36.667 12.333 68.334 37 95.001s56 40 94 40s69.167 -10.5 93.5 -31.5s36.5 -49.833 36.5 -86.5c0 -30 -13.667 -61.333 -41 -94zM276 654.999c0 16 -6.16699 29.833 -18.5 41.5
s-26.833 17.5 -43.5 17.5s-31.167 -5.83301 -43.5 -17.5s-18.5 -25.5 -18.5 -41.5c0 -16.667 6.16699 -31 18.5 -43s26.833 -18 43.5 -18s31.167 6 43.5 18s18.5 26.333 18.5 43zM280 177.999c0 16.667 -6.16699 30.834 -18.5 42.501s-26.833 17.5 -43.5 17.5
s-31.167 -5.83301 -43.5 -17.5s-18.5 -25.834 -18.5 -42.501s6.16699 -30.834 18.5 -42.501s26.833 -17.5 43.5 -17.5s31.167 5.83301 43.5 17.5s18.5 25.834 18.5 42.501z" />
    <glyph glyph-name="AE" unicode="&#xc6;" horiz-adv-x="721" 
d="M652 364c0 -14 -4.83203 -25.999 -14.499 -35.999s-21.5 -15 -35.5 -15s-26 5.16699 -36 15.5s-15 22.166 -15 35.499c0 14 5.16699 26 15.5 36s22.166 15 35.499 15s25 -5 35 -15s15 -22 15 -36zM601.001 205.001l-5 -197c-117.333 7.33301 -197.333 11 -240 11l-342 -3
l100 692c60 -0.666992 139 -0.666992 237 0c122 1.33301 200.667 2 236 2l9 -170l-156 -182l4 -9zM254.001 177.001c0 15.333 -5.5 28.168 -16.5 38.501s-24.167 15.5 -39.5 15.5s-28.5 -5.33301 -39.5 -16s-16.5 -23.334 -16.5 -38.001c0 -15.333 5.5 -28.333 16.5 -39
s24.167 -16 39.5 -16s28.5 5.33301 39.5 16s16.5 23.667 16.5 39z" />
    <glyph glyph-name="Ccedilla" unicode="&#xc7;" horiz-adv-x="521" 
d="M372 37c-11.333 -0.666992 -23.001 -0.667969 -35.001 -0.000976562l-7 -181c-118 0 -176.333 0.666992 -175 2l146 182c-83.333 12 -150.666 49.5 -201.999 112.5s-77 139.167 -77 228.5c0 126.667 72.333 227.334 217 302.001c40 20.667 76.333 35 109 43z" />
    <glyph glyph-name="Egrave" unicode="&#xc8;" horiz-adv-x="423" 
d="M358 380c0 -15.333 -5.5 -28.5 -16.5 -39.5s-23.833 -16.5 -38.5 -16.5c-15.333 0 -28.666 5.5 -39.999 16.5s-17 24.167 -17 39.5c0 14.667 5.66699 27.5 17 38.5s24.666 16.5 39.999 16.5s28.333 -5.33301 39 -16s16 -23.667 16 -39zM302 219l-4 -198l-282 19l-9 663
h145l-104 75l55 122l137 -197h48l10 -150l-157 -182l4 -8z" />
    <glyph glyph-name="Eacute" unicode="&#xc9;" horiz-adv-x="423" 
d="M291 800l-20 -99l-210 -1zM358 359c0 -15.333 -5.5 -28.5 -16.5 -39.5s-23.833 -16.5 -38.5 -16.5c-15.333 0 -28.666 5.5 -39.999 16.5s-17 24.167 -17 39.5c0 14.667 5.66699 27.5 17 38.5s24.666 16.5 39.999 16.5s28.333 -5.33301 39 -16s16 -23.667 16 -39zM302 208
l-4 -198l-282 19l-9 633h291v-140l-157 -172c3.33301 -6.66699 57 -54 161 -142z" />
    <glyph glyph-name="Ecircumflex" unicode="&#xca;" horiz-adv-x="423" 
d="M371 638c-57.333 0 -118.333 1 -183 3c-81.333 2 -141.333 3.33301 -180 4l175 175l43 3zM355 310c0 -15.333 -5.5 -28.5 -16.5 -39.5s-23.833 -16.5 -38.5 -16.5c-15.333 0 -28.5 5.5 -39.5 16.5s-16.5 24.167 -16.5 39.5s5.5 28.5 16.5 39.5s24.167 16.5 39.5 16.5
s28.333 -5.5 39 -16.5s16 -24.167 16 -39.5zM300 149l-5 -158l-282 19l-9 594h281l10 -121l-157 -181l4 -9z" />
    <glyph glyph-name="Edieresis" unicode="&#xcb;" horiz-adv-x="423" 
d="M324 734c0 -16 -5.83301 -29.667 -17.5 -41s-25.5 -17 -41.5 -17c-15.333 0 -28.833 5.66699 -40.5 17s-17.5 25 -17.5 41c0 15.333 5.83301 28.666 17.5 39.999s25.167 17 40.5 17c16 0 29.833 -5.66699 41.5 -17s17.5 -24.666 17.5 -39.999zM141 727
c0 -16 -5.83301 -29.667 -17.5 -41s-25.5 -17 -41.5 -17s-29.833 5.66699 -41.5 17s-17.5 25 -17.5 41s5.83301 29.667 17.5 41s25.5 17 41.5 17s29.833 -5.66699 41.5 -17s17.5 -25 17.5 -41zM358 340c0 -15.333 -5.5 -28.5 -16.5 -39.5s-23.833 -16.5 -38.5 -16.5
c-15.333 0 -28.666 5.5 -39.999 16.5s-17 24.167 -17 39.5c0 14.667 5.66699 27.5 17 38.5s24.666 16.5 39.999 16.5s28.333 -5.33301 39 -16s16 -23.667 16 -39zM302 179l-4 -168l-282 19l-9 613h281l10 -130l-157 -182l4 -8z" />
    <glyph glyph-name="Igrave" unicode="&#xcc;" horiz-adv-x="326" 
d="M234 693l-20 -20l-210 150l55 122zM153 690l-14 -679l-121 24l-6 663z" />
    <glyph glyph-name="Iacute" unicode="&#xcd;" horiz-adv-x="350" 
d="M304 789l-211 -170l-86 8l138 170zM153 590l-14 -599l-121 24l-6 583z" />
    <glyph glyph-name="Icircumflex" unicode="&#xce;" horiz-adv-x="459" 
d="M385 606l-384 8l204 204l28 -18zM255 580l-18 -536l-144 11l-6 534z" />
    <glyph glyph-name="Idieresis" unicode="&#xcf;" horiz-adv-x="375" 
d="M307 797c0 -16 -5.83301 -29.667 -17.5 -41s-25.167 -17 -40.5 -17c-16 0 -29.833 5.66699 -41.5 17s-17.5 25 -17.5 41c0 15.333 5.83301 28.666 17.5 39.999s25.5 17 41.5 17c15.333 0 28.833 -5.66699 40.5 -17s17.5 -24.666 17.5 -39.999zM124 790
c0 -16 -5.83301 -29.667 -17.5 -41s-25.167 -17 -40.5 -17c-16 0 -29.833 5.66699 -41.5 17s-17.5 25 -17.5 41s5.83301 29.667 17.5 41s25.5 17 41.5 17c15.333 0 28.833 -5.66699 40.5 -17s17.5 -25 17.5 -41zM153 690l-14 -679l-121 24l-6 663z" />
    <glyph glyph-name="Eth" unicode="&#xd0;" horiz-adv-x="504" 
d="M378 410c0 -93.333 -24.334 -175.999 -73.001 -247.999c-51.333 -76.667 -120.666 -126.334 -207.999 -149.001v318l-89 23v103l90 14l1 277c74.667 -30 138 -73.667 190 -131c59.333 -65.333 89 -134.333 89 -207z" />
    <glyph glyph-name="Ntilde" unicode="&#xd1;" horiz-adv-x="474" 
d="M322 710c-4.66699 -16 -14.668 -28.5 -30.001 -37.5s-32 -13.5 -50 -13.5c-28 0 -49.667 17.333 -65 52h-92c14.667 36.667 37.334 55 68.001 55c40.667 0 65.667 -17.667 75 -53zM356.999 12l-172 73l-18 -86l-155 14v622l199 -105l3 88l139 -2z" />
    <glyph glyph-name="Ograve" unicode="&#xd2;" horiz-adv-x="858" 
d="M730 401c0 -102 -38.168 -192.333 -114.501 -271s-165.5 -118 -267.5 -118s-183.167 31.667 -243.5 95s-90.5 146 -90.5 248c0 102.667 32.667 193.667 98 273c69.333 83.333 154.333 125 255 125c102.667 0 188.834 -33.167 258.501 -99.5s104.5 -150.5 104.5 -252.5z
M456.999 469l-176 252l-54 -122l210 -150z" />
    <glyph glyph-name="Oacute" unicode="&#xd3;" horiz-adv-x="858" 
d="M730 401c0 -102 -38.167 -192.333 -114.5 -271s-165.5 -118 -267.5 -118s-183.167 31.667 -243.5 95s-90.5 146 -90.5 248c0 94 28.333 179 85 255c58.667 80 132.667 126.667 222 140l107 131l158 -8l-154 -125c86.667 -14 157.667 -52.333 213 -115
c56.667 -64.667 85 -142 85 -232z" />
    <glyph glyph-name="Ocircumflex" unicode="&#xd4;" horiz-adv-x="858" 
d="M730 401c0 -102 -38.168 -192.333 -114.501 -271s-165.5 -118 -267.5 -118s-183.167 31.667 -243.5 95s-90.5 146 -90.5 248c0 102.667 32.667 193.667 98 273c69.333 83.333 154.333 125 255 125c102.667 0 188.834 -33.167 258.501 -99.5s104.5 -150.5 104.5 -252.5z
M529.999 449l-220 212l-204 -203z" />
    <glyph glyph-name="Otilde" unicode="&#xd5;" horiz-adv-x="858" 
d="M730 401c0 -102 -38.168 -192.333 -114.501 -271s-165.5 -118 -267.5 -118s-183.167 31.667 -243.5 95s-90.5 146 -90.5 248c0 102.667 32.667 193.667 98 273c69.333 83.333 154.333 125 255 125c102.667 0 188.834 -33.167 258.501 -99.5s104.5 -150.5 104.5 -252.5z
M453.999 568l-125 3.00098c-12.667 47.333 -45.667 71 -99 71c-40.667 0 -71 -24.333 -91 -73h122c21.333 -46.667 50.333 -70 87 -70c23.333 0 45.333 6.16699 66 18.5s34 29.166 40 50.499z" />
    <glyph glyph-name="Odieresis" unicode="&#xd6;" horiz-adv-x="767" 
d="M649 352c0 -89.333 -34.833 -168.669 -104.5 -238.002s-149.5 -104 -239.5 -104c-89.333 0 -160.5 27.833 -213.5 83.5s-79.5 128.5 -79.5 218.5c0 68 17.667 132 53 192c36 62.667 84.333 107.334 145 134.001c-26.667 8.66699 -40 27 -40 55
c0 16 5.83301 29.667 17.5 41s25.167 17 40.5 17c16 0 29.833 -5.66699 41.5 -17s17.5 -25 17.5 -41c0 -13.333 -4 -25 -12 -35c14 2.66699 29.667 4 47 4c16 0 32 -1 48 -3c-11.333 11.333 -17 25 -17 41s5.83301 29.667 17.5 41s25.5 17 41.5 17
c15.333 0 28.833 -5.66699 40.5 -17s17.5 -25 17.5 -41c0 -27.333 -13 -45.666 -39 -54.999c65.333 -20.667 118 -57.5 158 -110.5s60 -113.833 60 -182.5z" />
    <glyph glyph-name="multiply" unicode="&#xd7;" horiz-adv-x="449" 
d="M323 139l-304 6l101 173l-108 191h309l-114 -191z" />
    <glyph glyph-name="Oslash" unicode="&#xd8;" horiz-adv-x="854" 
d="M728 415c0 -102 -38.167 -192.333 -114.5 -271s-165.5 -118 -267.5 -118c-74.667 0 -138 17.333 -190 52l492 563c53.333 -64 80 -139.333 80 -226zM511 739l-451.001 -562c-32 54.667 -48 118.667 -48 192c0 102.667 32.667 193.667 98 273
c69.333 83.333 154.333 125 255 125c50.667 0 99.334 -9.33301 146.001 -28z" />
    <glyph glyph-name="Ugrave" unicode="&#xd9;" horiz-adv-x="606" 
d="M388 700l-101 -6l-173 115l55 122zM491 359c0 -93.333 -15.667 -170.333 -47 -231c-41.333 -78 -104.333 -117 -189 -117c-93.333 0 -159 35 -197 105c-28.667 52.667 -43 129.667 -43 231l1 315l446 24c6 -54.667 12.333 -109 19 -163c6.66699 -65.333 10 -120 10 -164z
" />
    <glyph glyph-name="Uacute" unicode="&#xda;" horiz-adv-x="606" 
d="M491 359c0 -93.333 -15.667 -170.333 -47 -231c-41.333 -78 -104.333 -117 -189 -117c-93.333 0 -159 35 -197 105c-28.667 52.667 -43 129.667 -43 231l1 315c68 5.33301 102.333 8.33301 103 9c-2 0.666992 -5.33301 1 -10 1l138 170l159 -9l-199 -161l255 14
c6 -54.667 12.333 -109 19 -163c6.66699 -65.333 10 -120 10 -164z" />
    <glyph glyph-name="Ucircumflex" unicode="&#xdb;" horiz-adv-x="606" 
d="M435 662c-156.667 0 -266 3 -328 9l166 129zM491 359c0 -93.333 -15.667 -170.332 -47 -230.999c-41.333 -78 -104.333 -117 -189 -117c-93.333 0 -159 35 -197 105c-28.667 52.667 -43 129.667 -43 231v244l446 25c2 -20.667 8.33301 -63.334 19 -128.001
c7.33301 -44.667 11 -87.667 11 -129z" />
    <glyph glyph-name="Udieresis" unicode="&#xdc;" horiz-adv-x="606" 
d="M416 740c0 -15.333 -5.83301 -28.666 -17.5 -39.999s-25.167 -17 -40.5 -17c-16 0 -29.833 5.66699 -41.5 17s-17.5 24.666 -17.5 39.999c0 16 5.83301 29.667 17.5 41s25.5 17 41.5 17c15.333 0 28.833 -5.66699 40.5 -17s17.5 -25 17.5 -41zM167 720
c0 -16 -5.83301 -29.667 -17.5 -41s-25.5 -17 -41.5 -17c-15.333 0 -28.833 5.66699 -40.5 17s-17.5 25 -17.5 41s5.83301 29.667 17.5 41s25.167 17 40.5 17c16 0 29.833 -5.66699 41.5 -17s17.5 -25 17.5 -41zM491 359c0 -93.333 -15.667 -170.333 -47 -231
c-41.333 -78 -104.333 -117 -189 -117c-150 0 -227.333 103.667 -232 311l-7 310l446 24l18 -148c7.33301 -59.333 11 -109 11 -149z" />
    <glyph glyph-name="Yacute" unicode="&#xdd;" horiz-adv-x="455" 
d="M332 806l-211 -160l-86 -2l138 170zM367 619c-4 -14 -25.333 -80.666 -64 -199.999c-35.333 -110 -53 -168 -53 -174c0 -30.667 0.666992 -70.334 2 -119.001c1.33301 -62 2 -102 2 -120l-135 3c2.66699 100 4 175.667 4 227c0 12 -15.667 71.667 -47 179
c-38 128 -58 196 -60 204h351z" />
    <glyph glyph-name="Thorn" unicode="&#xde;" horiz-adv-x="543" 
d="M426 288c0 -66 -27.332 -122.999 -81.999 -170.999c-52 -46.667 -111.333 -70 -178 -70c-12.667 0 -22.334 0.333008 -29.001 1v-1l-4 1l-5 -171l-113 4c-0.666992 91.333 -1 228.166 -1 410.499s-0.666992 319.166 -2 410.499l136 -6l-4 -207c20 8 40.667 12 62 12
c62 0 114.167 -20.167 156.5 -60.5s63.5 -91.166 63.5 -152.499zM251.001 273.001c0 18 -5.66699 32.501 -17 43.501s-25.666 16.5 -42.999 16.5s-32.166 -5.83301 -44.499 -17.5s-18.5 -25.834 -18.5 -42.501s6.16699 -31 18.5 -43s27.166 -18 44.499 -18
s31.666 5.83301 42.999 17.5s17 26.167 17 43.5z" />
    <glyph glyph-name="germandbls" unicode="&#xdf;" horiz-adv-x="607" 
d="M479 543c2.66699 -41.333 -26.334 -91.667 -87.001 -151c49.333 -33.333 74 -74.333 74 -123c0 -45.333 -21 -81.833 -63 -109.5s-96 -42.167 -162 -43.5l-11 -104l-213 6l-3 717l238 26c96.667 6 162.334 -22.333 197.001 -85c16 -28 26 -72.333 30 -133z" />
    <glyph glyph-name="agrave" unicode="&#xe0;" 
d="M402 560l-20 -20l-211 150l55 122zM401 20c-61.333 6.66699 -91.333 11.001 -90 13.001c-14 -14 -46.667 -21 -98 -21c-65.333 0 -116.833 18.167 -154.5 54.5s-56.5 87.166 -56.5 152.499c0 62 17.667 114 53 156c38 44.667 87.333 67 148 67c20 0 38.667 -5 56 -15
l4 37l138 1v-445zM263 223.001c0 16.667 -6.16699 30.834 -18.5 42.501s-26.833 17.5 -43.5 17.5s-31.167 -5.83301 -43.5 -17.5s-18.5 -25.834 -18.5 -42.501s6.16699 -31 18.5 -43s26.833 -18 43.5 -18s31.167 6 43.5 18s18.5 26.333 18.5 43z" />
    <glyph glyph-name="aacute" unicode="&#xe1;" 
d="M367 653l-229 -116l-28 52l185 162c2 0 26 -32.667 72 -98zM401 20c-61.333 6.66699 -91.333 11.001 -90 13.001c-14 -14 -46.667 -21 -98 -21c-65.333 0 -116.833 18.167 -154.5 54.5s-56.5 87.166 -56.5 152.499c0 62 17.667 114 53 156c38 44.667 87.333 67 148 67
c20 0 38.667 -5 56 -15l4 37l138 1v-445zM263 223.001c0 16.667 -6.16699 30.834 -18.5 42.501s-26.833 17.5 -43.5 17.5s-31.167 -5.83301 -43.5 -17.5s-18.5 -25.834 -18.5 -42.501s6.16699 -31 18.5 -43s26.833 -18 43.5 -18s31.167 6 43.5 18s18.5 26.333 18.5 43z" />
    <glyph glyph-name="acircumflex" unicode="&#xe2;" 
d="M375 583l-363 6l201 174zM401 20c-61.333 6.66699 -91.333 11.001 -90 13.001c-14 -14 -46.667 -21 -98 -21c-65.333 0 -116.833 18.167 -154.5 54.5s-56.5 87.166 -56.5 152.499c0 62 17.667 114 53 156c38 44.667 87.333 67 148 67c20 0 38.667 -5 56 -15l4 37l138 1
v-445zM263 223.001c0 16.667 -6.16699 30.834 -18.5 42.501s-26.833 17.5 -43.5 17.5s-31.167 -5.83301 -43.5 -17.5s-18.5 -25.834 -18.5 -42.501s6.16699 -31 18.5 -43s26.833 -18 43.5 -18s31.167 6 43.5 18s18.5 26.333 18.5 43z" />
    <glyph glyph-name="atilde" unicode="&#xe3;" 
d="M336 656c-6 -19.333 -18.333 -34.667 -37 -46s-38.667 -17 -60 -17c-33.333 0 -59.333 21.333 -78 64h-112c18.667 44 46.334 66 83.001 66c49.333 0 79.666 -21.333 90.999 -64zM401 19.999c-61.333 6.66699 -91.333 11.001 -90 13.001c-14 -14 -46.667 -21 -98 -21
c-65.333 0 -116.833 18.167 -154.5 54.5s-56.5 87.166 -56.5 152.499c0 62 17.667 114 53 156c38 44.667 87.333 67 148 67c20 0 38.667 -5 56 -15l4 37l138 1v-445zM263 223c0 16.667 -6.16699 30.834 -18.5 42.501s-26.833 17.5 -43.5 17.5s-31.167 -5.83301 -43.5 -17.5
s-18.5 -25.834 -18.5 -42.501s6.16699 -31 18.5 -43s26.833 -18 43.5 -18s31.167 6 43.5 18s18.5 26.333 18.5 43z" />
    <glyph glyph-name="adieresis" unicode="&#xe4;" 
d="M376 629c0 -15.333 -5.83301 -28.666 -17.5 -39.999s-25.5 -17 -41.5 -17c-15.333 0 -28.833 5.66699 -40.5 17s-17.5 24.666 -17.5 39.999c0 16 5.83301 29.667 17.5 41s25.167 17 40.5 17c16 0 29.833 -5.66699 41.5 -17s17.5 -25 17.5 -41zM193 623
c0 -16 -5.83301 -29.667 -17.5 -41s-25.5 -17 -41.5 -17c-15.333 0 -28.833 5.66699 -40.5 17s-17.5 25 -17.5 41s5.83301 29.667 17.5 41s25.167 17 40.5 17c16 0 29.833 -5.66699 41.5 -17s17.5 -25 17.5 -41zM401 20c-61.333 6.66699 -91.333 11.001 -90 13.001
c-14 -14 -46.667 -21 -98 -21c-65.333 0 -116.833 18.167 -154.5 54.5s-56.5 87.166 -56.5 152.499c0 62 17.667 114 53 156c38 44.667 87.333 67 148 67c20 0 38.667 -5 56 -15l4 37l138 1v-445zM263 223.001c0 16.667 -6.16699 30.834 -18.5 42.501
s-26.833 17.5 -43.5 17.5s-31.167 -5.83301 -43.5 -17.5s-18.5 -25.834 -18.5 -42.501s6.16699 -31 18.5 -43s26.833 -18 43.5 -18s31.167 6 43.5 18s18.5 26.333 18.5 43z" />
    <glyph glyph-name="aring" unicode="&#xe5;" 
d="M308 636c0 -32 -12 -60.5 -36 -85.5s-52 -37.5 -84 -37.5s-57.5 10 -76.5 30s-28.5 46 -28.5 78s11.833 60.667 35.5 86s51.5 38 83.5 38s57.667 -10 77 -30s29 -46.333 29 -79zM254 624c0 16.667 -6 30.834 -18 42.501s-26.333 17.5 -43 17.5
s-31.334 -5.83301 -44.001 -17.5s-19 -25.834 -19 -42.501s6.33301 -31 19 -43s27.334 -18 44.001 -18s31 6 43 18s18 26.333 18 43zM401 20c-61.333 6.66699 -91.333 11.001 -90 13.001c-14 -14 -46.667 -21 -98 -21c-65.333 0 -116.833 18.167 -154.5 54.5
s-56.5 87.166 -56.5 152.499c0 62 17.667 114 53 156c38 44.667 87.333 67 148 67c20 0 38.667 -5 56 -15l4 37l138 1v-445zM263 223.001c0 16.667 -6.16699 30.834 -18.5 42.501s-26.833 17.5 -43.5 17.5s-31.167 -5.83301 -43.5 -17.5s-18.5 -25.834 -18.5 -42.501
s6.16699 -31 18.5 -43s26.833 -18 43.5 -18s31.167 6 43.5 18s18.5 26.333 18.5 43z" />
    <glyph glyph-name="ae" unicode="&#xe6;" horiz-adv-x="831" 
d="M717 263c-38 -3.33301 -72.335 -5 -103.002 -5c-29.333 0 -72.666 0.666992 -129.999 2l3 -244c-36 2 -83.333 2 -142 0c-76.667 -2.66699 -124 -4 -142 -4c-61.333 0 -110.166 19 -146.499 57s-54.5 88 -54.5 150c0 59.333 17 110.333 51 153
c37.333 46.667 85 70 143 70c23.333 0 44.333 -5 63 -15l-3 44l145 -6l-1 -28c31.333 18.667 64.333 28 99 28c64 0 116.167 -18 156.5 -54s60.833 -85.333 61.5 -148zM262.998 223c0 16.667 -6.16699 30.834 -18.5 42.501s-26.833 17.5 -43.5 17.5
s-31.167 -5.83301 -43.5 -17.5s-18.5 -25.834 -18.5 -42.501s6.16699 -31 18.5 -43s26.833 -18 43.5 -18s31.167 6 43.5 18s18.5 26.333 18.5 43z" />
    <glyph glyph-name="ccedilla" unicode="&#xe7;" horiz-adv-x="403" 
d="M254 16c-2.66699 0 -7.33301 0.332031 -14 0.999023s-11.667 1 -15 1l6 -168h-112l82 172c-58.667 8 -105.5 33.833 -140.5 77.5s-52.5 97.5 -52.5 161.5c0 58.667 24 111.334 72 158.001c43.333 41.333 95.333 70 156 86z" />
    <glyph glyph-name="egrave" unicode="&#xe8;" horiz-adv-x="561" 
d="M326 540l-20 -20l-211 150l55 121zM442 263c-30 -2.66699 -64.333 -3.99902 -103 -3.99902c-58 0 -101.333 0.333008 -130 1l3 -243c-60 3.33301 -108.667 23.666 -146 60.999s-56 86 -56 146c0 62.667 19.667 117.667 59 165c42 50.667 93.667 76 155 76
c64 0 115.667 -17.333 155 -52c41.333 -36.667 62.333 -86.667 63 -150z" />
    <glyph glyph-name="eacute" unicode="&#xe9;" horiz-adv-x="556" 
d="M425 653l-229 -116l-28 52l185 162c2 0 26 -32.667 72 -98zM442 263c-30 -2.66699 -64.333 -3.99902 -103 -3.99902c-58 0 -101.333 0.333008 -130 1l3 -243c-60 3.33301 -108.667 23.666 -146 60.999s-56 86 -56 146c0 62.667 19.667 117.667 59 165
c42 50.667 93.667 76 155 76c64 0 115.667 -17.333 155 -52c41.333 -36.667 62.333 -86.667 63 -150z" />
    <glyph glyph-name="ecircumflex" unicode="&#xea;" horiz-adv-x="561" 
d="M425 570c-50.667 0 -110.333 1 -179 3c-88.667 2 -150 3.33301 -184 4l174 175l44 3zM442.001 263c-30 -2.66699 -64.333 -3.99902 -103 -3.99902c-58 0 -101.333 0.333008 -130 1l3 -243c-60 3.33301 -108.667 23.666 -146 60.999s-56 86 -56 146
c0 62.667 19.667 117.667 59 165c42 50.667 93.667 76 155 76c64 0 115.667 -17.333 155 -52c41.333 -36.667 62.333 -86.667 63 -150z" />
    <glyph glyph-name="edieresis" unicode="&#xeb;" horiz-adv-x="561" 
d="M384 644c0 -16 -5.83301 -29.667 -17.5 -41s-25.167 -17 -40.5 -17c-16 0 -29.833 5.66699 -41.5 17s-17.5 25 -17.5 41s5.83301 29.667 17.5 41s25.5 17 41.5 17c15.333 0 28.833 -5.66699 40.5 -17s17.5 -25 17.5 -41zM201 637c0 -16 -5.83301 -29.667 -17.5 -41
s-25.167 -17 -40.5 -17c-16 0 -29.833 5.66699 -41.5 17s-17.5 25 -17.5 41s5.83301 29.667 17.5 41s25.5 17 41.5 17c15.333 0 28.833 -5.66699 40.5 -17s17.5 -25 17.5 -41zM442 263c-30 -2.66699 -64.333 -3.99902 -103 -3.99902c-58 0 -101.333 0.333008 -130 1l3 -243
c-60 3.33301 -108.667 23.666 -146 60.999s-56 86 -56 146c0 62.667 19.667 117.667 59 165c42 50.667 93.667 76 155 76c64 0 115.667 -17.333 155 -52c41.333 -36.667 62.333 -86.667 63 -150z" />
    <glyph glyph-name="igrave" unicode="&#xec;" horiz-adv-x="289" 
d="M205 548l-20 -20l-171 120l15 152zM157 455l-25 -444l-121 24l1 429z" />
    <glyph glyph-name="iacute" unicode="&#xed;" horiz-adv-x="273" 
d="M194 649l-159 -136l-29 52c74.667 122 113 183 115 183s26.333 -33 73 -99zM158 454l-26 -444l-120 24l1 429z" />
    <glyph glyph-name="icircumflex" unicode="&#xee;" horiz-adv-x="355" 
d="M299 577l-290 9l141 172l44 4zM166 463l-26 -444l-121 24l1 429z" />
    <glyph glyph-name="idieresis" unicode="&#xef;" horiz-adv-x="391" 
d="M314 659c0 -16 -5.66699 -29.5 -17 -40.5s-25 -16.5 -41 -16.5s-29.833 5.5 -41.5 16.5s-17.5 24.5 -17.5 40.5s5.83301 29.667 17.5 41s25.5 17 41.5 17c15.333 0 28.833 -5.66699 40.5 -17s17.5 -25 17.5 -41zM131 653c0 -16 -5.83301 -29.667 -17.5 -41
s-25.5 -17 -41.5 -17c-15.333 0 -28.833 5.66699 -40.5 17s-17.5 25 -17.5 41c0 15.333 5.83301 28.666 17.5 39.999s25.167 17 40.5 17c16 0 29.833 -5.66699 41.5 -17s17.5 -24.666 17.5 -39.999zM165 465l-26 -444l-121 24l1 429z" />
    <glyph glyph-name="eth" unicode="&#xf0;" 
 />
    <glyph glyph-name="ntilde" unicode="&#xf1;" horiz-adv-x="395" 
d="M271 559c-4.66699 -16 -14.834 -28.667 -30.501 -38s-32.167 -14 -49.5 -14c-28 0 -49.667 17.667 -65 53h-92c14.667 36.667 37.334 55 68.001 55c40.667 0 65.667 -17.667 75 -53zM280 221c0 -62 -3.33301 -132 -10 -210l-77 3l-14 156l-90 4l-15 -156l-64 3v441l93 40
l8 -31c81.333 0 129.333 -13.667 144 -41c16.667 -31.333 25 -101 25 -209z" />
    <glyph glyph-name="ograve" unicode="&#xf2;" horiz-adv-x="562" 
d="M337 543l-20 -20l-210 149l55 122zM440 252c0 -61.333 -23.168 -115.833 -69.501 -163.5s-100.166 -71.5 -161.499 -71.5s-110.166 19 -146.499 57s-54.5 88 -54.5 150c0 62.667 19.667 117.667 59 165c41.333 50.667 92.666 76 153.999 76c62 0 114 -20 156 -60
s63 -91 63 -153z" />
    <glyph glyph-name="oacute" unicode="&#xf3;" horiz-adv-x="562" 
d="M430 655l-229 -116l-29 52l185 163c2 0 26.333 -33 73 -99zM440 252c0 -61.333 -23.168 -115.833 -69.501 -163.5s-100.166 -71.5 -161.499 -71.5s-110.166 19 -146.499 57s-54.5 88 -54.5 150c0 62.667 19.667 117.667 59 165c41.333 50.667 92.666 76 153.999 76
c62 0 114 -20 156 -60s63 -91 63 -153z" />
    <glyph glyph-name="ocircumflex" unicode="&#xf4;" horiz-adv-x="562" 
d="M411 573l-364 7l175 175zM440 252c0 -61.333 -23.168 -115.833 -69.501 -163.5s-100.166 -71.5 -161.499 -71.5s-110.166 19 -146.499 57s-54.5 88 -54.5 150c0 62.667 19.667 117.667 59 165c41.333 50.667 92.666 76 153.999 76c62 0 114 -20 156 -60s63 -91 63 -153z
" />
    <glyph glyph-name="otilde" unicode="&#xf5;" horiz-adv-x="562" 
d="M369 614c-6 -21.333 -19.332 -38.168 -39.999 -50.501s-42.667 -18.5 -66 -18.5c-18 0 -35.333 7.66699 -52 23c-14.667 12.667 -26 28.334 -34 47.001h-123c21.333 48.667 51.666 73 90.999 73c54 0 87.333 -23.333 100 -70zM440.001 251.998
c0 -61.333 -23.168 -115.833 -69.501 -163.5s-100.166 -71.5 -161.499 -71.5s-110.166 19 -146.499 57s-54.5 88 -54.5 150c0 62.667 19.667 117.667 59 165c41.333 50.667 92.666 76 153.999 76c62 0 114 -20 156 -60s63 -91 63 -153z" />
    <glyph glyph-name="odieresis" unicode="&#xf6;" horiz-adv-x="562" 
d="M399 710c0 -16 -5.83301 -29.667 -17.5 -41s-25.167 -17 -40.5 -17c-16 0 -29.833 5.66699 -41.5 17s-17.5 25 -17.5 41s5.83301 29.667 17.5 41s25.5 17 41.5 17c15.333 0 28.833 -5.66699 40.5 -17s17.5 -25 17.5 -41zM216 703c0 -16 -5.83301 -29.667 -17.5 -41
s-25.5 -17 -41.5 -17c-15.333 0 -28.833 5.66699 -40.5 17s-17.5 25 -17.5 41s5.83301 29.667 17.5 41s25.167 17 40.5 17c16 0 29.833 -5.66699 41.5 -17s17.5 -25 17.5 -41zM440 252c0 -61.333 -23.168 -115.833 -69.501 -163.5s-100.166 -71.5 -161.499 -71.5
s-110.166 19 -146.499 57s-54.5 88 -54.5 150c0 62.667 19.667 117.667 59 165c41.333 50.667 92.666 76 153.999 76c62 0 114 -20 156 -60s63 -91 63 -153z" />
    <glyph glyph-name="divide" unicode="&#xf7;" horiz-adv-x="472" 
d="M261 561c0 -17.333 -6.33301 -32.333 -19 -45s-27.667 -19 -45 -19s-32.5 6.33301 -45.5 19s-19.5 27.667 -19.5 45s6.5 32.166 19.5 44.499s28.167 18.5 45.5 18.5s32.333 -6.16699 45 -18.5s19 -27.166 19 -44.499zM373 243l-356 31l-16 167l372 -17
c0.666992 -40 0.666992 -100.333 0 -181zM246 145c0 -17.333 -6.33301 -32.166 -19 -44.499s-27.667 -18.5 -45 -18.5s-32.5 6.16699 -45.5 18.5s-19.5 27.166 -19.5 44.499c0 18 6.33301 33.167 19 45.5s28 18.5 46 18.5c17.333 0 32.333 -6.16699 45 -18.5
s19 -27.5 19 -45.5z" />
    <glyph glyph-name="oslash" unicode="&#xf8;" horiz-adv-x="562" 
d="M350 428l-314.999 -317c-18 32 -27 69.667 -27 113c0 62.667 19.667 117.667 59 165c41.333 50.667 92.666 76 153.999 76c47.333 0 90.333 -12.333 129 -37zM440.001 252c0 -61.333 -23.168 -115.833 -69.501 -163.5s-100.166 -71.5 -161.499 -71.5
c-46 0 -84.667 10.667 -116 32l329 293c12 -26.667 18 -56.667 18 -90z" />
    <glyph glyph-name="ugrave" unicode="&#xf9;" horiz-adv-x="438" 
d="M248 548l-20 -20l-211 150l55 122zM344 251c0 -64.667 -11.333 -118.002 -34 -160.002c-28.667 -52.667 -72.667 -79 -132 -79c-69.333 0 -117 26 -143 78c-17.333 36 -26 93 -26 171c0 12.667 0.666992 46.334 2 101.001c1.33301 41.333 1.33301 75 0 101l312 17
c14 -129.333 21 -205.666 21 -228.999z" />
    <glyph glyph-name="uacute" unicode="&#xfa;" horiz-adv-x="438" 
d="M307 653l-229 -116l-28 52l185 162c2 0 26 -32.667 72 -98zM344 251c0 -64.667 -11.333 -118.002 -34 -160.002c-28.667 -52.667 -72.667 -79 -132 -79c-69.333 0 -117 26 -143 78c-17.333 36 -26 93 -26 171c0 12.667 0.666992 46.334 2 101.001
c1.33301 41.333 1.33301 75 0 101l312 17c14 -129.333 21 -205.666 21 -228.999z" />
    <glyph glyph-name="ucircumflex" unicode="&#xfb;" horiz-adv-x="438" 
d="M375 583l-363 6l175 175zM344 251c0 -64.667 -11.333 -118.002 -34 -160.002c-28.667 -52.667 -72.667 -79 -132 -79c-69.333 0 -117 26 -143 78c-17.333 36 -26 93 -26 171c0 12.667 0.666992 46.334 2 101.001c1.33301 41.333 1.33301 75 0 101l312 17
c14 -129.333 21 -205.666 21 -228.999z" />
    <glyph glyph-name="udieresis" unicode="&#xfc;" horiz-adv-x="438" 
d="M319 710c0 -16 -5.83301 -29.667 -17.5 -41s-25.167 -17 -40.5 -17c-16 0 -29.833 5.66699 -41.5 17s-17.5 25 -17.5 41s5.83301 29.667 17.5 41s25.5 17 41.5 17c15.333 0 28.833 -5.66699 40.5 -17s17.5 -25 17.5 -41zM136 703c0 -16 -5.83301 -29.667 -17.5 -41
s-25.5 -17 -41.5 -17c-15.333 0 -28.833 5.66699 -40.5 17s-17.5 25 -17.5 41s5.83301 29.667 17.5 41s25.167 17 40.5 17c16 0 29.833 -5.66699 41.5 -17s17.5 -25 17.5 -41zM344 251c0 -64.667 -11.333 -118.002 -34 -160.002c-28.667 -52.667 -72.667 -79 -132 -79
c-69.333 0 -117 26 -143 78c-17.333 36 -26 93 -26 171c0 12.667 0.666992 46.334 2 101.001c1.33301 41.333 1.33301 75 0 101l312 17c14 -129.333 21 -205.666 21 -228.999z" />
    <glyph glyph-name="yacute" unicode="&#xfd;" horiz-adv-x="437" 
d="M316 731l-210 -170l-87 9l138 170zM358 473c-83.333 -283.333 -140 -504 -170 -662h-119l45 229l-108 433h352z" />
    <glyph glyph-name="thorn" unicode="&#xfe;" horiz-adv-x="543" 
d="M426 188c0 -66 -27.332 -123 -81.999 -171c-52 -46.667 -111.333 -70 -178 -70c-12.667 0 -22.334 0.333008 -29.001 1v-1l-4 1l-5 -151l-113 4c0 173.333 -1 433.666 -3 780.999l136 -6l-4 -187c20 8 40.667 12 62 12c62 0 114.167 -20.167 156.5 -60.5
s63.5 -91.166 63.5 -152.499zM251.001 174c0 17.333 -5.66699 31.501 -17 42.501s-25.666 16.5 -42.999 16.5s-32.166 -5.83301 -44.499 -17.5s-18.5 -25.834 -18.5 -42.501s6.16699 -31 18.5 -43s27.166 -18 44.499 -18s31.666 5.83301 42.999 17.5s17 26.5 17 44.5z" />
    <glyph glyph-name="ydieresis" unicode="&#xff;" horiz-adv-x="437" 
d="M340 677c0 -16 -5.83301 -29.667 -17.5 -41s-25.167 -17 -40.5 -17c-16 0 -29.833 5.66699 -41.5 17s-17.5 25 -17.5 41s5.83301 29.667 17.5 41s25.5 17 41.5 17c15.333 0 28.833 -5.66699 40.5 -17s17.5 -25 17.5 -41zM157 670c0 -16 -5.83301 -29.667 -17.5 -41
s-25.167 -17 -40.5 -17c-16 0 -29.833 5.66699 -41.5 17s-17.5 25 -17.5 41s5.83301 29.667 17.5 41s25.5 17 41.5 17c15.333 0 28.833 -5.66699 40.5 -17s17.5 -25 17.5 -41zM358 473c-83.333 -283.333 -140 -504 -170 -662h-119l45 229l-108 433h352z" />
    <glyph glyph-name="dotlessi" unicode="&#x131;" horiz-adv-x="258" 
d="M160 455l-26 -444l-120 24l1 429z" />
    <glyph glyph-name="Lslash" unicode="&#x141;" horiz-adv-x="445" 
d="M335 704l-6 -104l-161 -121v-51l153 -14l5 -403l-265 10v378l-54 -41v127l54 36l-1 187l109 -5l-1 -110z" />
    <glyph glyph-name="lslash" unicode="&#x142;" horiz-adv-x="261" 
d="M217 560l-3 -130l-65 -32l-11 -393l-121 24l-1 290l-35 -21l3 115l32 19l-1 261l141 -9l-4 -170z" />
    <glyph glyph-name="OE" unicode="&#x152;" horiz-adv-x="917" 
d="M858 371c0 -15.333 -5.5 -28.666 -16.5 -39.999s-24.167 -17 -39.5 -17s-28.5 5.66699 -39.5 17s-16.5 24.666 -16.5 39.999c0 14.667 5.5 27.5 16.5 38.5s24.167 16.5 39.5 16.5s28.5 -5.5 39.5 -16.5s16.5 -23.833 16.5 -38.5zM802 209l-5 -197
c-202.667 5.33301 -355 8 -457 8s-183.167 31.5 -243.5 94.5s-90.5 145.833 -90.5 248.5s32.667 193.667 98 273c69.333 83.333 154.333 125 255 125c82.667 0 155.667 -22.333 219 -67h209l10 -150l-157 -182c4 -10 58 -61 162 -153z" />
    <glyph glyph-name="oe" unicode="&#x153;" horiz-adv-x="899" 
d="M787 266c-30 -2.66699 -64.334 -4 -103.001 -4c-58 0 -101.333 0.333008 -130 1l3 -243c-76.667 4.66699 -132.667 34 -168 88c-48 -60.667 -108 -91 -180 -91c-61.333 0 -110.166 19 -146.499 57s-54.5 88 -54.5 150s19.667 117 59 165c42 50.667 93.333 76 154 76
c78.667 0 139 -29.667 181 -89c43.333 61.333 99 92 167 92c64 0 116.167 -18 156.5 -54s60.833 -85.333 61.5 -148z" />
    <glyph glyph-name="Scaron" unicode="&#x160;" horiz-adv-x="592" 
d="M473 819l-145 -116.001c38.667 -2 79 -7.66699 121 -17v-175l-140 -13c60.667 -43.333 101.667 -82 123 -116c26 -41.333 39 -96 39 -164c0 -136.667 -87.667 -205 -263 -205c-79.333 0 -145.333 6.66699 -198 20v152l147 5v43c-64.667 60.667 -102 98.334 -112 113.001
c-24 36 -36 87.333 -36 154c0 106 57.667 171 173 195l-136 133c48 0 119.333 -1.5 214 -4.5s165.667 -4.5 213 -4.5z" />
    <glyph glyph-name="scaron" unicode="&#x161;" horiz-adv-x="417" 
d="M335 727l-134.001 -107h-50l-115 113c41.333 0 90.833 -1 148.5 -3s107.834 -3 150.501 -3zM329.999 153c0 -96 -61.333 -144.001 -184 -144.001c-56 0 -101 4.33301 -135 13v106l99 5v30c-42 40 -67 66.333 -75 79c-16 24 -24 59 -24 105c0 97.333 62.667 146 188 146
c41.333 0 79.666 -4.33301 114.999 -13v-122l-97 -9c42.667 -30.667 71.334 -57.667 86.001 -81c18 -29.333 27 -67.666 27 -114.999z" />
    <glyph glyph-name="Ydieresis" unicode="&#x178;" horiz-adv-x="455" 
d="M352 737c0 -16 -5.83301 -29.667 -17.5 -41s-25.5 -17 -41.5 -17c-15.333 0 -28.833 5.66699 -40.5 17s-17.5 25 -17.5 41s5.83301 29.667 17.5 41s25.167 17 40.5 17c16 0 29.833 -5.66699 41.5 -17s17.5 -25 17.5 -41zM169 730c0 -16 -5.83301 -29.667 -17.5 -41
s-25.5 -17 -41.5 -17c-15.333 0 -28.833 5.66699 -40.5 17s-17.5 25 -17.5 41s5.83301 29.667 17.5 41s25.167 17 40.5 17c16 0 29.833 -5.66699 41.5 -17s17.5 -25 17.5 -41zM367 649c-2.66699 -10.667 -24 -80.666 -64 -209.999c-35.333 -116.667 -53 -178 -53 -184
c0 -30.667 0.666992 -70.334 2 -119.001c1.33301 -62 2 -102 2 -120l-135 3c2.66699 100 4 175.667 4 227c0 12 -15.667 75 -47 189l-60 214h351z" />
    <glyph glyph-name="Zcaron" unicode="&#x17d;" horiz-adv-x="577" 
d="M458 825l-174 -140.001l136 -3l14 -334l-123 -126v-46l123 -5v-157l-427 2l-1 44c-0.666992 36 0.333008 85.333 3 148c2.66699 70.667 4 120.334 4 149.001l136 143l-134 12l-6 179l171 -3l-149 146c48 0 119.333 -1.5 214 -4.5s165.667 -4.5 213 -4.5z" />
    <glyph glyph-name="zcaron" unicode="&#x17e;" horiz-adv-x="418" 
d="M335 696l-134.001 -107h-50l-115 113c41.333 0 90.833 -1 148.5 -3s107.834 -3 150.501 -3zM311.999 10h-293c-1.33301 52.667 -2 132.667 -2 240l49.5 49l48.5 49l-101 9v127l288 -6l10 -234l-86 -89v-32l86 -3v-110z" />
    <glyph glyph-name="florin" unicode="&#x192;" horiz-adv-x="464" 
d="M395 565c0 -19.333 -7 -35.833 -21 -49.5s-30.667 -20.5 -50 -20.5s-36 6.83301 -50 20.5s-21 30.167 -21 49.5s7 35.833 21 49.5s30.667 20.5 50 20.5s36 -6.83301 50 -20.5s21 -30.167 21 -49.5zM305 304l-76.999 -2.00098l-3 -274v-11
c-10.667 -80 -55.667 -126.667 -135 -140l1 423l-93 9l8 156h86c2 62.667 10.333 107.334 25 134.001c19.333 36 56.666 58.667 111.999 68v-196l73 -6z" />
    <glyph glyph-name="circumflex" unicode="&#x2c6;" horiz-adv-x="438" 
d="M357 636c-47.333 0 -103.333 1 -168 3c-82.667 2 -139.667 3.33301 -171 4l163 163l40 3z" />
    <glyph glyph-name="caron" unicode="&#x2c7;" horiz-adv-x="469" 
d="M390 690l-133.001 -107h-51l-115 113c41.333 0 90.833 -1 148.5 -3s107.834 -3 150.501 -3z" />
    <glyph glyph-name="breve" unicode="&#x2d8;" horiz-adv-x="530" 
d="M377 800c-13.333 -21.333 -28.333 -40 -45 -56c-41.333 -37.333 -89 -57.333 -143 -60c-80 -4 -137.333 34.667 -172 116h360z" />
    <glyph glyph-name="dotaccent" unicode="&#x2d9;" horiz-adv-x="188" 
d="M126 762c0 -16 -5.83301 -29.667 -17.5 -41s-25.167 -17 -40.5 -17c-16 0 -29.833 5.66699 -41.5 17s-17.5 25 -17.5 41s5.83301 29.667 17.5 41s25.5 17 41.5 17c15.333 0 28.833 -5.66699 40.5 -17s17.5 -25 17.5 -41z" />
    <glyph glyph-name="ring" unicode="&#x2da;" 
d="M308 696c0 -32 -12 -60.501 -36 -85.501s-52 -37.5 -84 -37.5s-57.5 10 -76.5 30s-28.5 46 -28.5 78c0 32.667 10.5 61.834 31.5 87.501s47.5 38.5 79.5 38.5s59 -10.5 81 -31.5s33 -47.5 33 -79.5zM254 683.999c0 16.667 -6 30.834 -18 42.501s-26.333 17.5 -43 17.5
s-31.334 -5.83301 -44.001 -17.5s-19 -25.834 -19 -42.501s6.33301 -31 19 -43s27.334 -18 44.001 -18s31 6 43 18s18 26.333 18 43z" />
    <glyph glyph-name="ogonek" unicode="&#x2db;" horiz-adv-x="294" 
d="M221 -136c-23.333 -38.667 -57 -58 -101 -58c-32 0 -57.667 10 -77 30s-29 46.333 -29 79s11.667 61 35 85z" />
    <glyph glyph-name="tilde" unicode="&#x2dc;" horiz-adv-x="496" 
d="M343 687c-5.33301 -22 -18.999 -39.334 -40.999 -52.001c-19.333 -11.333 -41 -17 -65 -17c-18 0 -35.333 7.66699 -52 23c-14.667 12.667 -26 28.334 -34 47.001h-123c21.333 48.667 51.666 73 90.999 73c24 0 45.167 -6.33301 63.5 -19s30.5 -30 36.5 -52z" />
    <glyph glyph-name="hungarumlaut" unicode="&#x2dd;" horiz-adv-x="535" 
d="M466 848l-158 -164l-87 9l87 164zM267 857l-158 -164l-87 8l87 165z" />
    <glyph glyph-name="Delta" unicode="&#x394;" 
 />
    <glyph glyph-name="Delta" unicode="&#x2206;" 
 />
    <glyph glyph-name="Omega" unicode="&#x3a9;" 
 />
    <glyph glyph-name="Omega" unicode="&#x2126;" 
 />
    <glyph glyph-name="pi" unicode="&#x3c0;" 
 />
    <glyph glyph-name="endash" unicode="&#x2013;" horiz-adv-x="338" 
d="M246 419l-3 -176l-235 31l-3 167l238 -17c0 -4 1 -5.66699 3 -5z" />
    <glyph glyph-name="emdash" unicode="&#x2014;" horiz-adv-x="622" 
d="M526 419l-3 -176l-506 31l-16 167l522 -17c0 -4 1 -5.66699 3 -5z" />
    <glyph glyph-name="quoteleft" unicode="&#x2018;" horiz-adv-x="206" 
d="M140 612c-6.66699 -2.66699 -12.333 -4.33398 -17 -5.00098c-38 -6 -56.667 -9 -56 -9c-19.333 0 -30.666 11.333 -33.999 34c-0.666992 6 -1 12 -1 18c0 51.333 28.667 93 86 125c-30.667 -28 -43.334 -58 -38.001 -90c4.66699 -29.333 24.667 -53.666 60 -72.999z" />
    <glyph glyph-name="quoteright" unicode="&#x2019;" horiz-adv-x="206" 
d="M146 718c0 -58.667 -35.333 -101.333 -106 -128c34.667 23.333 52 51.333 52 84c0 30 -16 57 -48 81c6.66699 1.33301 12.5 2 17.5 2s12.167 0.333008 21.5 1h19c29.333 0 44 -13.333 44 -40z" />
    <glyph glyph-name="quotesinglbase" unicode="&#x201a;" horiz-adv-x="206" 
d="M146 68c0 -58.667 -35.333 -101.333 -106 -128c34.667 23.333 52 51.333 52 84c0 30 -16 57 -48 81c6.66699 1.33301 12.5 2 17.5 2s12.167 0.333008 21.5 1h19c29.333 0 44 -13.333 44 -40z" />
    <glyph glyph-name="quotedblleft" unicode="&#x201c;" horiz-adv-x="313" 
d="M251 620c-4 -1.33301 -9.66699 -3 -17 -5c-27.333 -4.66699 -44 -7 -50 -7c-23.333 0 -37 12.667 -41 38c-0.666992 6 -1 12 -1 18c0 46.667 29 86.667 87 120c-19.333 -18 -29 -43.333 -29 -76c0 -40 17 -69.333 51 -88zM114 614c-4 -0.666992 -9.66602 -2 -16.999 -4
c-35.333 -6 -53.666 -9 -54.999 -9c-19.333 0 -31 11.333 -35 34c-1.33301 8.66699 -2 17 -2 25c0 45.333 30.667 85 92 119c-28.667 -26 -40.334 -55.667 -35.001 -89c5.33301 -34 22.666 -59.333 51.999 -76z" />
    <glyph glyph-name="quotedblright" unicode="&#x201d;" horiz-adv-x="353" 
d="M292 722c0 -60 -35.667 -102.667 -107 -128c34.667 22 52 49.667 52 83c0 30.667 -16 58 -48 82c2 0 5 0.333008 9 1s7 1 9 1c4.66699 0 11.667 0.333008 21 1h20c29.333 0 44 -13.333 44 -40zM127 716c0 -60 -35.333 -102.667 -106 -128c34 22 51 49.667 51 83
c0 30.667 -16 58 -48 82c2 0 5 0.333008 9 1s7 1 9 1c5.33301 0 12.333 0.333008 21 1h20c29.333 0 44 -13.333 44 -40z" />
    <glyph glyph-name="quotedblbase" unicode="&#x201e;" horiz-adv-x="353" 
d="M292 52c0 -60 -35.667 -102.667 -107 -128c34.667 22 52 49.667 52 83c0 30.667 -16 58 -48 82c2 0 5 0.333008 9 1s7 1 9 1c4.66699 0 11.667 0.333008 21 1h20c29.333 0 44 -13.333 44 -40zM127 46c0 -60 -35.333 -102.667 -106 -128c34 22 51 49.667 51 83
c0 30.667 -16 58 -48 82c2 0 5 0.333008 9 1s7 1 9 1c5.33301 0 12.333 0.333008 21 1h20c29.333 0 44 -13.333 44 -40z" />
    <glyph glyph-name="dagger" unicode="&#x2020;" horiz-adv-x="419" 
d="M311 359l-78 -3l-98 -448l-39 446l-85 9v136h87l-4 159l142 -8l-5 -151h77z" />
    <glyph glyph-name="daggerdbl" unicode="&#x2021;" horiz-adv-x="419" 
d="M336 263v-1l-6 -133l-101 6l-2 -121l-136 2l1 127l-76 5l-14 131l93 -5l1 80l-85 9v136h87l-4 159l142 -8l-5 -151h77l3 -140l-78 -3l-2 -88z" />
    <glyph glyph-name="bullet" unicode="&#x2022;" horiz-adv-x="486" 
d="M369 410c0 -50.667 -19.168 -95.665 -57.501 -134.998s-82.833 -59 -133.5 -59s-91.167 15.667 -121.5 47s-45.5 72.666 -45.5 123.999s16.333 96.666 49 135.999c34.667 42 77.334 63 128.001 63c51.333 0 94.333 -16.667 129 -50s52 -75.333 52 -126z" />
    <glyph glyph-name="ellipsis" unicode="&#x2026;" horiz-adv-x="567" 
d="M498 70c0 -16 -5.83301 -29.667 -17.5 -41s-25.5 -17 -41.5 -17c-15.333 0 -28.833 5.66699 -40.5 17s-17.5 25 -17.5 41s5.83301 29.667 17.5 41s25.167 17 40.5 17c16 0 29.833 -5.66699 41.5 -17s17.5 -25 17.5 -41zM312 75c0 -16 -5.83301 -29.667 -17.5 -41
s-25.167 -17 -40.5 -17c-16 0 -29.833 5.66699 -41.5 17s-17.5 25 -17.5 41s5.83301 29.667 17.5 41s25.5 17 41.5 17c15.333 0 28.833 -5.66699 40.5 -17s17.5 -25 17.5 -41zM126 72c0 -16 -5.83301 -29.667 -17.5 -41s-25.167 -17 -40.5 -17
c-16 0 -29.833 5.66699 -41.5 17s-17.5 25 -17.5 41s5.83301 29.667 17.5 41s25.5 17 41.5 17c15.333 0 28.833 -5.66699 40.5 -17s17.5 -25 17.5 -41z" />
    <glyph glyph-name="perthousand" unicode="&#x2030;" horiz-adv-x="757" 
d="M189 612c0 -21.333 -7.66699 -39.5 -23 -54.5s-33.666 -22.5 -54.999 -22.5s-39.666 7.66699 -54.999 23s-23 33.333 -23 54c0 21.333 7.66699 39.5 23 54.5s33.666 22.5 54.999 22.5s39.666 -7.5 54.999 -22.5s23 -33.167 23 -54.5zM678 99
c0 -20.667 -7.66699 -38.667 -23 -54s-33.666 -23 -54.999 -23s-39.666 7.5 -54.999 22.5s-23 33.167 -23 54.5s7.66699 39.5 23 54.5s33.666 22.5 54.999 22.5s39.666 -7.5 54.999 -22.5s23 -33.167 23 -54.5zM519 656l-407 -718l-97 76l382 714zM486 100
c0 -21.333 -7.66699 -39.5 -23 -54.5s-33.666 -22.5 -54.999 -22.5s-39.666 7.5 -54.999 22.5s-23 33.167 -23 54.5s7.66699 39.5 23 54.5s33.666 22.5 54.999 22.5s39.666 -7.5 54.999 -22.5s23 -33.167 23 -54.5z" />
    <glyph glyph-name="guilsinglleft" unicode="&#x2039;" horiz-adv-x="439" 
d="M286 100l-265 217l256 242z" />
    <glyph glyph-name="guilsinglright" unicode="&#x203a;" horiz-adv-x="302" 
d="M286 316l-274 -212l6 461z" />
    <glyph glyph-name="fraction" unicode="&#x2044;" horiz-adv-x="646" 
d="M519 666l-407 -718l-97 76l382 714z" />
    <glyph glyph-name="trademark" unicode="&#x2122;" horiz-adv-x="717" 
d="M629 342l-96 -11l-16 50l-88 -34l-96 35l-16 -49l-96 10l5 403l194 -93v-2l194 94zM203 461l-57 -2l-5 -146l-82 1l3 138l-53 12v248h191z" />
    <glyph glyph-name="partialdiff" unicode="&#x2202;" 
 />
    <glyph glyph-name="product" unicode="&#x220f;" 
 />
    <glyph glyph-name="summation" unicode="&#x2211;" 
 />
    <glyph glyph-name="radical" unicode="&#x221a;" 
 />
    <glyph glyph-name="infinity" unicode="&#x221e;" horiz-adv-x="789" 
d="M656 330c0 -39.333 -19.001 -73.002 -57.001 -101.002s-83.667 -42 -137 -42c-63.333 0 -114.333 18.333 -153 55c-34.667 -31.333 -77.334 -47 -128.001 -47c-47.333 0 -87.666 13.833 -120.999 41.5s-50 60.834 -50 99.501s16.833 71.834 50.5 99.501
s73.834 41.5 120.501 41.5c54 0 98.667 -17.667 134 -53c38 32.667 87 49 147 49c53.333 0 99 -14 137 -42s57 -61.667 57 -101zM514.999 331.998c0 16.667 -6.00195 30.833 -18.002 42.5s-26.333 17.5 -43 17.5c-17.333 0 -32.166 -5.83301 -44.499 -17.5
s-18.5 -25.834 -18.5 -42.501c0 -16 6.33301 -30 19 -42s27.334 -18 44.001 -18s31 5.83301 43 17.5s18 25.834 18 42.501zM239.997 332.997c0 16.667 -6.16699 30.834 -18.5 42.501s-26.833 17.5 -43.5 17.5s-31.334 -5.83301 -44.001 -17.5s-19 -25.834 -19 -42.501
s6.33301 -31 19 -43s27.334 -18 44.001 -18s31.167 6 43.5 18s18.5 26.333 18.5 43z" />
    <glyph glyph-name="integral" unicode="&#x222b;" 
 />
    <glyph glyph-name="approxequal" unicode="&#x2248;" 
 />
    <glyph glyph-name="approxequal" unicode="&#x22f2;" 
 />
    <glyph glyph-name="notequal" unicode="&#x2260;" horiz-adv-x="481" 
d="M385 358l-3 -174.999l-180 14l-28 -77l-147 3l35 85l-48 4l-1 164l116 -6l22 55l-137 9l-7 169l207 -6l43 110c83.333 -8.66699 125 -14 125 -16c-6 -18.667 -18.667 -53.334 -38 -104.001l34 -2l-3 -175l-93 6l-19 -52z" />
    <glyph glyph-name="lessequal" unicode="&#x2264;" horiz-adv-x="492" 
d="M322 120l-299 244l288 272zM371 96l-3 -158.001l-320 27l-14 151l334 -16c0.666992 -3.33301 1.66699 -4.66602 3 -3.99902z" />
    <glyph glyph-name="greaterequal" unicode="&#x2265;" horiz-adv-x="395" 
d="M327 365l-309 -238l8 519zM337 -63l-319.999 27v146l320 -11c0 -18 0.166992 -45 0.5 -81s0.166016 -63 -0.500977 -81z" />
    <glyph glyph-name="lozenge" unicode="&#x25ca;" horiz-adv-x="519" 
d="M507 306l-250 -193l-235 201l217 234zM309 315c0 16.667 -6.16699 30.834 -18.5 42.501s-26.833 17.5 -43.5 17.5s-31.334 -5.83301 -44.001 -17.5s-19 -25.834 -19 -42.501s6.33301 -31 19 -43s27.334 -18 44.001 -18s31.167 6 43.5 18s18.5 26.333 18.5 43z" />
    <glyph glyph-name="apple" unicode="&#xf000;" horiz-adv-x="917" 
d="M577 656l-209 -144l83 216zM723 107c-71.333 -149.333 -134.668 -224.001 -190.001 -224.001c-32 0 -79.333 -0.333008 -142 -1s-109.667 -1 -141 -1c-56 0 -106.333 41 -151 123c-42.667 77.333 -65.667 162 -69 254c-2.66699 74.667 10.333 135.334 39 182.001
c33.333 55.333 85 83 155 83c18.667 0 45.334 -5.16699 80.001 -15.5s60.667 -15.5 78 -15.5c27.333 0 61 5.66699 101 17s68 17 84 17c8 0 15.667 -0.666992 23 -2c20.667 -4 57 -30.667 109 -80l-132 -189z" />
    <glyph glyph-name="fi" unicode="&#xf001;" horiz-adv-x="550" 
d="M447 566c0 -18 -6.83301 -33.667 -20.5 -47s-29.5 -20 -47.5 -20c-17.333 0 -32.333 6.33301 -45 19s-19 27.667 -19 45s6.33301 32.166 19 44.499s27.667 18.5 45 18.5c18 0 33.833 -5.66699 47.5 -17s20.5 -25.666 20.5 -42.999zM455 456l-25.999 -444l-119 6l9 283
l-90 -2l-1 -288l-136 2l-2 290l-90 3l7 156h87c2.66699 63.333 11 108 25 134c19.333 36 56.666 58.667 111.999 68v-196c53.333 -2.66699 128 -6.66699 224 -12z" />
    <glyph glyph-name="fl" unicode="&#xf002;" horiz-adv-x="550" 
d="M436 697l-19.001 -678l-120 29l-2 285l-66 -2l-1 -288l-136 7v279l-92 10l7 155h87c3.33301 87.333 21.333 144.333 54 171c28.667 23.333 86 35 172 35c38.667 0 77.334 -1 116.001 -3zM294.999 485l-1 102h-63v-97z" />
    <glyph glyph-name="glyph1" horiz-adv-x="0" 
 />
    <glyph glyph-name="glyph2" horiz-adv-x="288" 
 />
    <glyph glyph-name=".null" 
 />
    <glyph glyph-name="HT" 
 />
    <glyph glyph-name="LF" 
 />
    <glyph glyph-name="nonmarkingreturn" 
 />
    <glyph glyph-name="DLE" 
 />
    <glyph glyph-name="DC1" 
 />
    <glyph glyph-name="DC2" 
 />
    <glyph glyph-name="DC3" 
 />
    <glyph glyph-name="DC4" 
 />
    <glyph glyph-name="RS" 
 />
    <glyph glyph-name="US" 
 />
    <glyph glyph-name="DEL" horiz-adv-x="184" 
 />
    </font>
</defs>
</svg>
